<mxfile host="app.diagrams.net" modified="2024-06-11T04:19:26.975Z" agent="Mozilla/5.0 (Windows NT 10.0; Win64; x64) AppleWebKit/537.36 (KHTML, like Gecko) Chrome/123.0.0.0 Safari/537.36 OPR/109.0.0.0" etag="qTEZ88rlrTFq6Su1jwqQ" version="24.5.2" type="google">
  <diagram name="Página-1" id="SkkikhPuCQQdOY4rjehg">
    <mxGraphModel grid="1" page="1" gridSize="10" guides="1" tooltips="1" connect="1" arrows="1" fold="1" pageScale="1" pageWidth="827" pageHeight="1169" math="0" shadow="0">
      <root>
        <mxCell id="0" />
        <mxCell id="1" parent="0" />
        <mxCell id="jzX1-chcsxnyE8P7l5MP-298" value="" style="rounded=0;whiteSpace=wrap;html=1;shadow=1;fillColor=default;" vertex="1" parent="1">
          <mxGeometry x="220" y="30" width="1260" height="1280" as="geometry" />
        </mxCell>
        <mxCell id="jzX1-chcsxnyE8P7l5MP-1" value="Cliente" style="whiteSpace=wrap;strokeWidth=2;shape=umlActor;verticalLabelPosition=bottom;verticalAlign=top;html=1;outlineConnect=0;" vertex="1" parent="1">
          <mxGeometry x="140" y="120" width="50" height="94" as="geometry" />
        </mxCell>
        <mxCell id="jzX1-chcsxnyE8P7l5MP-2" value="&lt;span style=&quot;font-size: 11px; text-wrap: nowrap; background-color: rgb(255, 255, 255);&quot;&gt;Inicia sesión&lt;/span&gt;&lt;div&gt;&lt;span style=&quot;font-size: 11px; text-wrap: nowrap; background-color: rgb(255, 255, 255);&quot;&gt;(cliente)&lt;/span&gt;&lt;/div&gt;" style="whiteSpace=wrap;strokeWidth=2;shape=ellipse;perimeter=ellipsePerimeter;html=1;" vertex="1" parent="1">
          <mxGeometry x="470" y="40" width="100" height="40" as="geometry" />
        </mxCell>
        <mxCell id="jzX1-chcsxnyE8P7l5MP-3" value="Ingresar a perfil&amp;nbsp;&lt;div&gt;Cliente&lt;/div&gt;" style="whiteSpace=wrap;strokeWidth=4;shape=ellipse;perimeter=ellipsePerimeter;html=1;shadow=1;" vertex="1" parent="1">
          <mxGeometry x="681.95" y="99.29000000000002" width="159" height="34" as="geometry" />
        </mxCell>
        <mxCell id="jzX1-chcsxnyE8P7l5MP-4" value="Paseador" style="whiteSpace=wrap;strokeWidth=2;shape=umlActor;verticalLabelPosition=bottom;verticalAlign=top;html=1;outlineConnect=0;" vertex="1" parent="1">
          <mxGeometry x="1520" y="325.29" width="50" height="94" as="geometry" />
        </mxCell>
        <mxCell id="jzX1-chcsxnyE8P7l5MP-5" value="Iniciar sesión (Paseador)" style="whiteSpace=wrap;strokeWidth=2;shape=ellipse;perimeter=ellipsePerimeter;html=1;" vertex="1" parent="1">
          <mxGeometry x="1227.62" y="463.28999999999996" width="123" height="34" as="geometry" />
        </mxCell>
        <mxCell id="jzX1-chcsxnyE8P7l5MP-7" value="Editar Perfil&amp;nbsp;&lt;div&gt;Cliente&lt;/div&gt;" style="whiteSpace=wrap;strokeWidth=2;shape=ellipse;perimeter=ellipsePerimeter;html=1;" vertex="1" parent="1">
          <mxGeometry x="730" y="290" width="117" height="34" as="geometry" />
        </mxCell>
        <mxCell id="jzX1-chcsxnyE8P7l5MP-9" value="Visualizar Mascotas Registradas" style="whiteSpace=wrap;strokeWidth=2;shape=ellipse;perimeter=ellipsePerimeter;html=1;" vertex="1" parent="1">
          <mxGeometry x="810" y="204.71" width="150" height="40" as="geometry" />
        </mxCell>
        <mxCell id="jzX1-chcsxnyE8P7l5MP-10" value="Registrar Mascota" style="whiteSpace=wrap;strokeWidth=2;shape=ellipse;perimeter=ellipsePerimeter;html=1;" vertex="1" parent="1">
          <mxGeometry x="810" y="340" width="154" height="34" as="geometry" />
        </mxCell>
        <mxCell id="jzX1-chcsxnyE8P7l5MP-11" value="Editar Perfil Paseador" style="whiteSpace=wrap;strokeWidth=2;shape=ellipse;perimeter=ellipsePerimeter;html=1;" vertex="1" parent="1">
          <mxGeometry x="987.5699999999999" y="533" width="171" height="34" as="geometry" />
        </mxCell>
        <mxCell id="jzX1-chcsxnyE8P7l5MP-13" value="Visualizar&lt;div&gt;Paseadores&lt;/div&gt;" style="whiteSpace=wrap;strokeWidth=2;shape=ellipse;perimeter=ellipsePerimeter;html=1;" vertex="1" parent="1">
          <mxGeometry x="620" y="230" width="140" height="37" as="geometry" />
        </mxCell>
        <mxCell id="jzX1-chcsxnyE8P7l5MP-15" value="Ver perfil de paseador" style="whiteSpace=wrap;strokeWidth=2;shape=ellipse;perimeter=ellipsePerimeter;html=1;" vertex="1" parent="1">
          <mxGeometry x="594" y="348" width="159" height="34" as="geometry" />
        </mxCell>
        <mxCell id="jzX1-chcsxnyE8P7l5MP-17" value="Revisar Solicitudes" style="whiteSpace=wrap;strokeWidth=2;shape=ellipse;perimeter=ellipsePerimeter;html=1;" vertex="1" parent="1">
          <mxGeometry x="937.5699999999998" y="630" width="148" height="34" as="geometry" />
        </mxCell>
        <mxCell id="jzX1-chcsxnyE8P7l5MP-18" value="Aceptar Solicitud" style="whiteSpace=wrap;strokeWidth=2;shape=ellipse;perimeter=ellipsePerimeter;html=1;" vertex="1" parent="1">
          <mxGeometry x="919.9999999999999" y="770.5" width="110" height="34" as="geometry" />
        </mxCell>
        <mxCell id="jzX1-chcsxnyE8P7l5MP-19" value="Ingresa a vista &quot;login&quot;&#xa;ingresa con correo y contraseña&#xa;" style="curved=1;startArrow=none;endArrow=block;rounded=0;entryX=0;entryY=0.5;entryDx=0;entryDy=0;exitX=1;exitY=0.3333333333333333;exitDx=0;exitDy=0;exitPerimeter=0;" edge="1" parent="1" source="jzX1-chcsxnyE8P7l5MP-1" target="jzX1-chcsxnyE8P7l5MP-2">
          <mxGeometry x="0.3855" y="-30" relative="1" as="geometry">
            <Array as="points">
              <mxPoint x="350" y="60" />
            </Array>
            <mxPoint as="offset" />
          </mxGeometry>
        </mxCell>
        <mxCell id="jzX1-chcsxnyE8P7l5MP-20" value="Redirecciona a" style="curved=1;startArrow=none;endArrow=block;exitX=1;exitY=0.5;entryX=0;entryY=0;rounded=0;exitDx=0;exitDy=0;entryDx=0;entryDy=0;" edge="1" parent="1" source="jzX1-chcsxnyE8P7l5MP-2" target="jzX1-chcsxnyE8P7l5MP-3">
          <mxGeometry x="-0.1569" y="-4" relative="1" as="geometry">
            <Array as="points">
              <mxPoint x="660" y="70" />
            </Array>
            <mxPoint x="631.95" y="59.28999999999999" as="sourcePoint" />
            <mxPoint y="-1" as="offset" />
          </mxGeometry>
        </mxCell>
        <mxCell id="jzX1-chcsxnyE8P7l5MP-21" value="Ingresa a &#xa;vista &quot;login&quot;&#xa;&#xa;" style="curved=1;startArrow=none;endArrow=block;rounded=0;exitX=0;exitY=0.3333333333333333;exitDx=0;exitDy=0;exitPerimeter=0;" edge="1" parent="1" source="jzX1-chcsxnyE8P7l5MP-4" target="jzX1-chcsxnyE8P7l5MP-5">
          <mxGeometry x="0.2582" y="24" relative="1" as="geometry">
            <Array as="points">
              <mxPoint x="1332.2199999999998" y="410" />
            </Array>
            <mxPoint x="1557.57" y="389" as="sourcePoint" />
            <mxPoint x="1" as="offset" />
          </mxGeometry>
        </mxCell>
        <mxCell id="jzX1-chcsxnyE8P7l5MP-25" value="Vista de &#xa;&quot;Mascotas&quot;" style="curved=1;startArrow=none;endArrow=block;rounded=0;exitX=0.914;exitY=0.794;exitDx=0;exitDy=0;exitPerimeter=0;" edge="1" parent="1" source="jzX1-chcsxnyE8P7l5MP-3" target="jzX1-chcsxnyE8P7l5MP-9">
          <mxGeometry x="0.3382" y="6" relative="1" as="geometry">
            <Array as="points" />
            <mxPoint x="831.95" y="139.29000000000002" as="sourcePoint" />
            <mxPoint x="891.95" y="199.29000000000002" as="targetPoint" />
            <mxPoint as="offset" />
          </mxGeometry>
        </mxCell>
        <mxCell id="jzX1-chcsxnyE8P7l5MP-26" value="Ingresa a función &#xa;&quot;agregar mascota&quot;" style="curved=1;startArrow=none;endArrow=block;entryX=0.591;entryY=0.04;rounded=0;exitX=0.5;exitY=1;exitDx=0;exitDy=0;entryDx=0;entryDy=0;entryPerimeter=0;" edge="1" parent="1" source="jzX1-chcsxnyE8P7l5MP-9" target="jzX1-chcsxnyE8P7l5MP-10">
          <mxGeometry x="-0.1354" y="39" relative="1" as="geometry">
            <Array as="points" />
            <mxPoint as="offset" />
            <mxPoint x="959.210484271129" y="254.63145281338802" as="sourcePoint" />
            <mxPoint x="954.5699999999995" y="350" as="targetPoint" />
          </mxGeometry>
        </mxCell>
        <mxCell id="jzX1-chcsxnyE8P7l5MP-30" value="Explora &#xa;paseadores" style="curved=1;startArrow=none;endArrow=block;entryX=0.5;entryY=0;rounded=0;entryDx=0;entryDy=0;" edge="1" parent="1" source="jzX1-chcsxnyE8P7l5MP-3" target="jzX1-chcsxnyE8P7l5MP-13">
          <mxGeometry x="-0.1838" y="6" relative="1" as="geometry">
            <Array as="points">
              <mxPoint x="690" y="180" />
            </Array>
            <mxPoint x="624.45" y="223.29000000000002" as="targetPoint" />
            <mxPoint as="offset" />
          </mxGeometry>
        </mxCell>
        <mxCell id="jzX1-chcsxnyE8P7l5MP-39" value="" style="endArrow=classic;html=1;rounded=0;entryX=0.574;entryY=0.081;entryDx=0;entryDy=0;entryPerimeter=0;exitX=0.5;exitY=1;exitDx=0;exitDy=0;" edge="1" parent="1" source="jzX1-chcsxnyE8P7l5MP-13" target="jzX1-chcsxnyE8P7l5MP-15">
          <mxGeometry width="50" height="50" relative="1" as="geometry">
            <mxPoint x="700" y="270" as="sourcePoint" />
            <mxPoint x="600.0020000000002" y="346.00400000000013" as="targetPoint" />
            <Array as="points" />
          </mxGeometry>
        </mxCell>
        <mxCell id="jzX1-chcsxnyE8P7l5MP-42" value="" style="curved=1;startArrow=none;endArrow=block;rounded=0;exitX=0.634;exitY=1.036;exitDx=0;exitDy=0;exitPerimeter=0;entryX=0.413;entryY=0.087;entryDx=0;entryDy=0;entryPerimeter=0;" edge="1" parent="1" source="jzX1-chcsxnyE8P7l5MP-3" target="jzX1-chcsxnyE8P7l5MP-7">
          <mxGeometry relative="1" as="geometry">
            <Array as="points" />
            <mxPoint x="584.95" y="127.29000000000002" as="sourcePoint" />
            <mxPoint x="800" y="280" as="targetPoint" />
          </mxGeometry>
        </mxCell>
        <mxCell id="jzX1-chcsxnyE8P7l5MP-49" value="&lt;span style=&quot;font-size: 11px; text-wrap: nowrap; background-color: rgb(255, 255, 255);&quot;&gt;Recuperar&amp;nbsp;&lt;/span&gt;&lt;div&gt;&lt;span style=&quot;font-size: 11px; text-wrap: nowrap; background-color: rgb(255, 255, 255);&quot;&gt;contraseña&lt;/span&gt;&lt;/div&gt;" style="whiteSpace=wrap;strokeWidth=2;shape=ellipse;perimeter=ellipsePerimeter;html=1;" vertex="1" parent="1">
          <mxGeometry x="305" y="214.00000000000003" width="100" height="40" as="geometry" />
        </mxCell>
        <mxCell id="jzX1-chcsxnyE8P7l5MP-55" value="ingresa a función&#xa;&quot;Recuperar contraseña&quot;&#xa;en vista &quot;login&quot;&#xa;" style="curved=1;startArrow=none;endArrow=block;rounded=0;exitX=1;exitY=0.3333333333333333;exitDx=0;exitDy=0;exitPerimeter=0;" edge="1" parent="1" source="jzX1-chcsxnyE8P7l5MP-1" target="jzX1-chcsxnyE8P7l5MP-49">
          <mxGeometry x="0.4794" y="11" relative="1" as="geometry">
            <Array as="points">
              <mxPoint x="340" y="151" />
            </Array>
            <mxPoint x="290" y="160" as="sourcePoint" />
            <mxPoint x="480" y="70" as="targetPoint" />
            <mxPoint as="offset" />
          </mxGeometry>
        </mxCell>
        <mxCell id="jzX1-chcsxnyE8P7l5MP-57" value="&lt;span style=&quot;font-size: 11px; text-wrap: nowrap; background-color: rgb(255, 255, 255);&quot;&gt;Verificar&amp;nbsp;&lt;/span&gt;&lt;div&gt;&lt;span style=&quot;font-size: 11px; text-wrap: nowrap; background-color: rgb(255, 255, 255);&quot;&gt;correo electrónico&lt;/span&gt;&lt;/div&gt;" style="whiteSpace=wrap;strokeWidth=2;shape=ellipse;perimeter=ellipsePerimeter;html=1;" vertex="1" parent="1">
          <mxGeometry x="284.5" y="340" width="110" height="44.71" as="geometry" />
        </mxCell>
        <mxCell id="jzX1-chcsxnyE8P7l5MP-59" value="&#xa;" style="curved=1;startArrow=none;endArrow=block;rounded=0;exitX=0.252;exitY=0.974;exitDx=0;exitDy=0;exitPerimeter=0;entryX=0.421;entryY=0.004;entryDx=0;entryDy=0;entryPerimeter=0;" edge="1" parent="1" source="jzX1-chcsxnyE8P7l5MP-49" target="jzX1-chcsxnyE8P7l5MP-57">
          <mxGeometry x="-0.4229" y="5" relative="1" as="geometry">
            <Array as="points">
              <mxPoint x="320" y="310" />
            </Array>
            <mxPoint x="336" y="150.57999999999998" as="sourcePoint" />
            <mxPoint x="335" y="340" as="targetPoint" />
            <mxPoint as="offset" />
          </mxGeometry>
        </mxCell>
        <mxCell id="jzX1-chcsxnyE8P7l5MP-61" value="Proporciona&amp;nbsp;&lt;div&gt;correo&lt;div&gt;registrado&lt;/div&gt;&lt;/div&gt;" style="edgeLabel;html=1;align=center;verticalAlign=middle;resizable=0;points=[];" connectable="0" vertex="1" parent="jzX1-chcsxnyE8P7l5MP-59">
          <mxGeometry x="0.4088" y="1" relative="1" as="geometry">
            <mxPoint x="-14" y="-40" as="offset" />
          </mxGeometry>
        </mxCell>
        <mxCell id="jzX1-chcsxnyE8P7l5MP-65" value="&lt;span style=&quot;font-size: 11px; text-wrap: nowrap; background-color: rgb(255, 255, 255);&quot;&gt;Recuperar&amp;nbsp;&lt;/span&gt;&lt;div&gt;&lt;span style=&quot;font-size: 11px; text-wrap: nowrap; background-color: rgb(255, 255, 255);&quot;&gt;contraseña&lt;/span&gt;&lt;/div&gt;" style="whiteSpace=wrap;strokeWidth=2;shape=ellipse;perimeter=ellipsePerimeter;html=1;" vertex="1" parent="1">
          <mxGeometry x="1217.6199999999997" y="300" width="96.05" height="40" as="geometry" />
        </mxCell>
        <mxCell id="jzX1-chcsxnyE8P7l5MP-66" value="ingresa a función&#xa;&quot;Recuperar contraseña&quot;&#xa;en vista &quot;login&quot;&#xa;" style="curved=1;startArrow=none;endArrow=block;rounded=0;entryX=1;entryY=0.5;entryDx=0;entryDy=0;exitX=0;exitY=0.3333333333333333;exitDx=0;exitDy=0;exitPerimeter=0;" edge="1" parent="1" source="jzX1-chcsxnyE8P7l5MP-4" target="jzX1-chcsxnyE8P7l5MP-65">
          <mxGeometry x="0.049" y="11" relative="1" as="geometry">
            <Array as="points">
              <mxPoint x="1378.12" y="320" />
            </Array>
            <mxPoint x="1516.57" y="389" as="sourcePoint" />
            <mxPoint x="1045.57" y="-8" as="targetPoint" />
            <mxPoint x="-1" as="offset" />
          </mxGeometry>
        </mxCell>
        <mxCell id="jzX1-chcsxnyE8P7l5MP-67" value="&lt;span style=&quot;font-size: 11px; text-wrap: nowrap; background-color: rgb(255, 255, 255);&quot;&gt;Verificar&amp;nbsp;&lt;/span&gt;&lt;div&gt;&lt;span style=&quot;font-size: 11px; text-wrap: nowrap; background-color: rgb(255, 255, 255);&quot;&gt;correo electrónico&lt;/span&gt;&lt;/div&gt;" style="whiteSpace=wrap;strokeWidth=2;shape=ellipse;perimeter=ellipsePerimeter;html=1;" vertex="1" parent="1">
          <mxGeometry x="1205.6199999999997" y="180.00000000000003" width="110" height="44.71" as="geometry" />
        </mxCell>
        <mxCell id="jzX1-chcsxnyE8P7l5MP-68" value="&#xa;" style="curved=1;startArrow=none;endArrow=block;rounded=0;entryX=1;entryY=1;entryDx=0;entryDy=0;exitX=1;exitY=0;exitDx=0;exitDy=0;" edge="1" parent="1" source="jzX1-chcsxnyE8P7l5MP-65" target="jzX1-chcsxnyE8P7l5MP-67">
          <mxGeometry x="-0.2619" relative="1" as="geometry">
            <Array as="points">
              <mxPoint x="1327.62" y="260" />
            </Array>
            <mxPoint x="861.0699999999998" y="252.57999999999993" as="sourcePoint" />
            <mxPoint x="965.0699999999998" y="404.5799999999999" as="targetPoint" />
            <mxPoint as="offset" />
          </mxGeometry>
        </mxCell>
        <mxCell id="jzX1-chcsxnyE8P7l5MP-69" value="Proporciona correo&lt;div&gt;registrado&lt;/div&gt;" style="edgeLabel;html=1;align=center;verticalAlign=middle;resizable=0;points=[];" connectable="0" vertex="1" parent="jzX1-chcsxnyE8P7l5MP-68">
          <mxGeometry x="0.4088" y="1" relative="1" as="geometry">
            <mxPoint x="8" y="22" as="offset" />
          </mxGeometry>
        </mxCell>
        <mxCell id="jzX1-chcsxnyE8P7l5MP-70" value="&#xa;" style="curved=1;startArrow=none;endArrow=block;rounded=0;entryX=0.348;entryY=0.065;entryDx=0;entryDy=0;exitX=0.406;exitY=0.981;exitDx=0;exitDy=0;exitPerimeter=0;entryPerimeter=0;" edge="1" parent="1" source="jzX1-chcsxnyE8P7l5MP-65" target="jzX1-chcsxnyE8P7l5MP-5">
          <mxGeometry x="0.0612" y="7" relative="1" as="geometry">
            <Array as="points">
              <mxPoint x="1237.62" y="390" />
            </Array>
            <mxPoint x="985.0699999999998" y="336" as="sourcePoint" />
            <mxPoint x="1124.0199999999998" y="-30" as="targetPoint" />
            <mxPoint as="offset" />
          </mxGeometry>
        </mxCell>
        <mxCell id="jzX1-chcsxnyE8P7l5MP-75" value="Redirecciona a&lt;div&gt;vista &quot;login&quot;&lt;/div&gt;" style="edgeLabel;html=1;align=center;verticalAlign=middle;resizable=0;points=[];" connectable="0" vertex="1" parent="jzX1-chcsxnyE8P7l5MP-70">
          <mxGeometry x="-0.0331" y="2" relative="1" as="geometry">
            <mxPoint x="12" y="4" as="offset" />
          </mxGeometry>
        </mxCell>
        <mxCell id="jzX1-chcsxnyE8P7l5MP-76" value="&#xa;" style="curved=1;startArrow=none;endArrow=block;rounded=0;entryX=0.652;entryY=0.943;entryDx=0;entryDy=0;entryPerimeter=0;exitX=0.73;exitY=0.101;exitDx=0;exitDy=0;exitPerimeter=0;" edge="1" parent="1" source="jzX1-chcsxnyE8P7l5MP-57" target="jzX1-chcsxnyE8P7l5MP-49">
          <mxGeometry x="0.0612" y="7" relative="1" as="geometry">
            <Array as="points">
              <mxPoint x="380" y="330" />
            </Array>
            <mxPoint x="380" y="330" as="sourcePoint" />
            <mxPoint x="335" y="360" as="targetPoint" />
            <mxPoint as="offset" />
          </mxGeometry>
        </mxCell>
        <mxCell id="jzX1-chcsxnyE8P7l5MP-77" value="Define nueva&amp;nbsp;&lt;div&gt;contraseña&lt;/div&gt;" style="edgeLabel;html=1;align=center;verticalAlign=middle;resizable=0;points=[];" connectable="0" vertex="1" parent="jzX1-chcsxnyE8P7l5MP-76">
          <mxGeometry x="0.4088" y="1" relative="1" as="geometry">
            <mxPoint x="7" y="30" as="offset" />
          </mxGeometry>
        </mxCell>
        <mxCell id="jzX1-chcsxnyE8P7l5MP-79" value="&#xa;" style="curved=1;startArrow=none;endArrow=block;rounded=0;entryX=0.615;entryY=1.05;entryDx=0;entryDy=0;entryPerimeter=0;exitX=1;exitY=0;exitDx=0;exitDy=0;" edge="1" parent="1" source="jzX1-chcsxnyE8P7l5MP-49" target="jzX1-chcsxnyE8P7l5MP-2">
          <mxGeometry x="0.0612" y="7" relative="1" as="geometry">
            <Array as="points">
              <mxPoint x="527.95" y="143" />
            </Array>
            <mxPoint x="477.95" y="168" as="sourcePoint" />
            <mxPoint x="527.95" y="80" as="targetPoint" />
            <mxPoint as="offset" />
          </mxGeometry>
        </mxCell>
        <mxCell id="jzX1-chcsxnyE8P7l5MP-80" value="Redirecciona a&lt;div&gt;vista &quot;login&quot;&lt;/div&gt;" style="edgeLabel;html=1;align=center;verticalAlign=middle;resizable=0;points=[];" connectable="0" vertex="1" parent="jzX1-chcsxnyE8P7l5MP-79">
          <mxGeometry x="0.4088" y="1" relative="1" as="geometry">
            <mxPoint x="-24" y="16" as="offset" />
          </mxGeometry>
        </mxCell>
        <mxCell id="jzX1-chcsxnyE8P7l5MP-85" value="&#xa;" style="curved=1;startArrow=none;endArrow=block;rounded=0;entryX=0.341;entryY=0.044;entryDx=0;entryDy=0;exitX=0.302;exitY=0.99;exitDx=0;exitDy=0;exitPerimeter=0;entryPerimeter=0;" edge="1" parent="1" source="jzX1-chcsxnyE8P7l5MP-67" target="jzX1-chcsxnyE8P7l5MP-65">
          <mxGeometry x="-0.1941" y="-3" relative="1" as="geometry">
            <Array as="points">
              <mxPoint x="1227.62" y="270" />
            </Array>
            <mxPoint x="1140.6199999999997" y="230.00000000000003" as="sourcePoint" />
            <mxPoint x="1147.6199999999997" y="332" as="targetPoint" />
            <mxPoint as="offset" />
          </mxGeometry>
        </mxCell>
        <mxCell id="jzX1-chcsxnyE8P7l5MP-86" value="Define nueva&amp;nbsp;&lt;div&gt;contraseña&lt;/div&gt;" style="edgeLabel;html=1;align=center;verticalAlign=middle;resizable=0;points=[];" connectable="0" vertex="1" parent="jzX1-chcsxnyE8P7l5MP-85">
          <mxGeometry x="0.4088" y="1" relative="1" as="geometry">
            <mxPoint x="-24" y="-22" as="offset" />
          </mxGeometry>
        </mxCell>
        <mxCell id="jzX1-chcsxnyE8P7l5MP-88" value="" style="curved=1;endArrow=classic;html=1;rounded=0;entryX=1;entryY=0.5;entryDx=0;entryDy=0;exitX=0.224;exitY=0.158;exitDx=0;exitDy=0;exitPerimeter=0;" edge="1" parent="1" source="jzX1-chcsxnyE8P7l5MP-139" target="jzX1-chcsxnyE8P7l5MP-11">
          <mxGeometry width="50" height="50" relative="1" as="geometry">
            <mxPoint x="1312.6699999999998" y="674" as="sourcePoint" />
            <mxPoint x="1177.5699999999977" y="560" as="targetPoint" />
            <Array as="points">
              <mxPoint x="1219.57" y="560" />
            </Array>
          </mxGeometry>
        </mxCell>
        <mxCell id="jzX1-chcsxnyE8P7l5MP-90" value="Enviar solicitud&lt;div&gt;de paseo&lt;/div&gt;" style="whiteSpace=wrap;strokeWidth=2;shape=ellipse;perimeter=ellipsePerimeter;html=1;" vertex="1" parent="1">
          <mxGeometry x="594" y="443.29" width="126" height="34" as="geometry" />
        </mxCell>
        <mxCell id="jzX1-chcsxnyE8P7l5MP-91" value="" style="curved=1;startArrow=none;endArrow=block;entryX=0.5;entryY=0;rounded=0;entryDx=0;entryDy=0;exitX=0.5;exitY=1;exitDx=0;exitDy=0;" edge="1" parent="1" source="jzX1-chcsxnyE8P7l5MP-15" target="jzX1-chcsxnyE8P7l5MP-90">
          <mxGeometry relative="1" as="geometry">
            <Array as="points" />
            <mxPoint x="590" y="390" as="sourcePoint" />
            <mxPoint x="570" y="472.36" as="targetPoint" />
          </mxGeometry>
        </mxCell>
        <mxCell id="jzX1-chcsxnyE8P7l5MP-100" value="" style="endArrow=none;dashed=1;html=1;rounded=0;shadow=0;flowAnimation=1;dashPattern=1 4;strokeWidth=2;strokeColor=#737373;" edge="1" parent="1" source="jzX1-chcsxnyE8P7l5MP-90">
          <mxGeometry width="50" height="50" relative="1" as="geometry">
            <mxPoint x="589" y="540" as="sourcePoint" />
            <mxPoint x="660" y="618" as="targetPoint" />
            <Array as="points" />
          </mxGeometry>
        </mxCell>
        <mxCell id="jzX1-chcsxnyE8P7l5MP-101" value="Se ingresa&amp;nbsp;&lt;div style=&quot;font-size: 9px;&quot;&gt;solicitud&amp;nbsp;&lt;/div&gt;&lt;div style=&quot;font-size: 9px;&quot;&gt;de paseo&lt;/div&gt;" style="edgeLabel;html=1;align=center;verticalAlign=middle;resizable=0;points=[];fontColor=#919191;fontSize=9;" connectable="0" vertex="1" parent="jzX1-chcsxnyE8P7l5MP-100">
          <mxGeometry x="0.0449" relative="1" as="geometry">
            <mxPoint x="-2" y="-25" as="offset" />
          </mxGeometry>
        </mxCell>
        <mxCell id="jzX1-chcsxnyE8P7l5MP-102" value="" style="endArrow=none;dashed=1;html=1;rounded=0;entryX=0;entryY=0.5;entryDx=0;entryDy=0;shadow=0;flowAnimation=1;dashPattern=1 4;strokeWidth=2;strokeColor=#737373;" edge="1" parent="1" target="jzX1-chcsxnyE8P7l5MP-17">
          <mxGeometry width="50" height="50" relative="1" as="geometry">
            <mxPoint x="770" y="647" as="sourcePoint" />
            <mxPoint x="861.05" y="650" as="targetPoint" />
          </mxGeometry>
        </mxCell>
        <mxCell id="jzX1-chcsxnyE8P7l5MP-106" value="" style="endArrow=none;dashed=1;html=1;rounded=0;shadow=0;flowAnimation=1;exitX=0.407;exitY=1.015;exitDx=0;exitDy=0;exitPerimeter=0;dashPattern=1 4;strokeWidth=2;strokeColor=#737373;entryX=0.59;entryY=0.04;entryDx=0;entryDy=0;entryPerimeter=0;" edge="1" parent="1" source="jzX1-chcsxnyE8P7l5MP-7" target="jzX1-chcsxnyE8P7l5MP-94">
          <mxGeometry width="50" height="50" relative="1" as="geometry">
            <mxPoint x="790" y="550" as="sourcePoint" />
            <mxPoint x="640" y="623" as="targetPoint" />
            <Array as="points">
              <mxPoint x="740" y="490" />
              <mxPoint x="690" y="580" />
            </Array>
          </mxGeometry>
        </mxCell>
        <mxCell id="jzX1-chcsxnyE8P7l5MP-107" value="Actualización&lt;div style=&quot;font-size: 10px;&quot;&gt;de información&lt;/div&gt;" style="edgeLabel;html=1;align=center;verticalAlign=middle;resizable=0;points=[];fontColor=#919191;fontSize=10;" connectable="0" vertex="1" parent="jzX1-chcsxnyE8P7l5MP-106">
          <mxGeometry x="-0.2096" y="1" relative="1" as="geometry">
            <mxPoint x="7" y="-32" as="offset" />
          </mxGeometry>
        </mxCell>
        <mxCell id="jzX1-chcsxnyE8P7l5MP-109" value="" style="endArrow=none;dashed=1;html=1;dashPattern=1 3;strokeWidth=2;rounded=0;exitX=0.096;exitY=0.926;exitDx=0;exitDy=0;exitPerimeter=0;shadow=0;flowAnimation=1;strokeColor=#737373;entryX=0.795;entryY=0.04;entryDx=0;entryDy=0;entryPerimeter=0;" edge="1" parent="1" source="jzX1-chcsxnyE8P7l5MP-11" target="jzX1-chcsxnyE8P7l5MP-94">
          <mxGeometry width="50" height="50" relative="1" as="geometry">
            <mxPoint x="790" y="550" as="sourcePoint" />
            <mxPoint x="680" y="630" as="targetPoint" />
            <Array as="points">
              <mxPoint x="860" y="580" />
              <mxPoint x="734" y="590" />
            </Array>
          </mxGeometry>
        </mxCell>
        <mxCell id="jzX1-chcsxnyE8P7l5MP-110" value="Actualización&lt;div style=&quot;font-size: 10px;&quot;&gt;de información&lt;/div&gt;" style="edgeLabel;html=1;align=center;verticalAlign=middle;resizable=0;points=[];fontColor=#919191;fontSize=10;" connectable="0" vertex="1" parent="jzX1-chcsxnyE8P7l5MP-109">
          <mxGeometry x="0.0362" y="2" relative="1" as="geometry">
            <mxPoint x="70" y="-7" as="offset" />
          </mxGeometry>
        </mxCell>
        <mxCell id="jzX1-chcsxnyE8P7l5MP-111" value="Rechazar Solicitud" style="whiteSpace=wrap;strokeWidth=2;shape=ellipse;perimeter=ellipsePerimeter;html=1;" vertex="1" parent="1">
          <mxGeometry x="917.5699999999999" y="720" width="110" height="34" as="geometry" />
        </mxCell>
        <mxCell id="jzX1-chcsxnyE8P7l5MP-112" value="" style="curved=1;endArrow=classic;html=1;rounded=0;exitX=0.5;exitY=1;exitDx=0;exitDy=0;entryX=0.67;entryY=0.104;entryDx=0;entryDy=0;entryPerimeter=0;" edge="1" parent="1" source="jzX1-chcsxnyE8P7l5MP-17" target="jzX1-chcsxnyE8P7l5MP-111">
          <mxGeometry width="50" height="50" relative="1" as="geometry">
            <mxPoint x="1109.6699999999998" y="777" as="sourcePoint" />
            <mxPoint x="1159.6699999999998" y="727" as="targetPoint" />
            <Array as="points" />
          </mxGeometry>
        </mxCell>
        <mxCell id="jzX1-chcsxnyE8P7l5MP-114" value="" style="endArrow=none;dashed=1;html=1;rounded=0;shadow=0;flowAnimation=1;exitX=0.426;exitY=0.966;exitDx=0;exitDy=0;exitPerimeter=0;dashPattern=1 4;strokeWidth=2;strokeColor=#737373;" edge="1" parent="1" source="jzX1-chcsxnyE8P7l5MP-10">
          <mxGeometry width="50" height="50" relative="1" as="geometry">
            <mxPoint x="790" y="550" as="sourcePoint" />
            <mxPoint x="700" y="623" as="targetPoint" />
            <Array as="points">
              <mxPoint x="780" y="500" />
              <mxPoint x="700" y="580" />
            </Array>
          </mxGeometry>
        </mxCell>
        <mxCell id="jzX1-chcsxnyE8P7l5MP-115" value="Se ingresa&amp;nbsp;&lt;div style=&quot;font-size: 10px;&quot;&gt;Mascota&lt;/div&gt;" style="edgeLabel;html=1;align=center;verticalAlign=middle;resizable=0;points=[];fontColor=#919191;fontSize=10;" connectable="0" vertex="1" parent="jzX1-chcsxnyE8P7l5MP-114">
          <mxGeometry x="-0.1122" y="-3" relative="1" as="geometry">
            <mxPoint x="25" y="-27" as="offset" />
          </mxGeometry>
        </mxCell>
        <mxCell id="jzX1-chcsxnyE8P7l5MP-116" value="" style="endArrow=none;dashed=1;html=1;dashPattern=1 4;strokeWidth=2;rounded=0;exitX=0;exitY=0.5;exitDx=0;exitDy=0;shadow=0;flowAnimation=1;strokeColor=#737373;entryX=0.981;entryY=0.823;entryDx=0;entryDy=0;entryPerimeter=0;" edge="1" parent="1" source="jzX1-chcsxnyE8P7l5MP-111" target="jzX1-chcsxnyE8P7l5MP-94">
          <mxGeometry width="50" height="50" relative="1" as="geometry">
            <mxPoint x="729" y="643" as="sourcePoint" />
            <mxPoint x="770" y="670" as="targetPoint" />
            <Array as="points" />
          </mxGeometry>
        </mxCell>
        <mxCell id="jzX1-chcsxnyE8P7l5MP-118" value="" style="curved=1;endArrow=classic;html=1;rounded=0;entryX=1;entryY=0;entryDx=0;entryDy=0;exitX=0;exitY=0.5;exitDx=0;exitDy=0;" edge="1" parent="1" source="jzX1-chcsxnyE8P7l5MP-139" target="jzX1-chcsxnyE8P7l5MP-17">
          <mxGeometry width="50" height="50" relative="1" as="geometry">
            <mxPoint x="1250.57" y="622" as="sourcePoint" />
            <mxPoint x="1085.57" y="604" as="targetPoint" />
            <Array as="points">
              <mxPoint x="1087.57" y="600" />
            </Array>
          </mxGeometry>
        </mxCell>
        <mxCell id="jzX1-chcsxnyE8P7l5MP-296" value="Vista &quot;solicitudes&quot;" style="edgeLabel;html=1;align=center;verticalAlign=middle;resizable=0;points=[];" connectable="0" vertex="1" parent="jzX1-chcsxnyE8P7l5MP-118">
          <mxGeometry x="-0.255" y="4" relative="1" as="geometry">
            <mxPoint x="-12" y="-3" as="offset" />
          </mxGeometry>
        </mxCell>
        <mxCell id="jzX1-chcsxnyE8P7l5MP-119" value="" style="curved=1;endArrow=classic;html=1;rounded=0;exitX=0.5;exitY=1;exitDx=0;exitDy=0;entryX=1;entryY=0;entryDx=0;entryDy=0;" edge="1" parent="1" source="jzX1-chcsxnyE8P7l5MP-17" target="jzX1-chcsxnyE8P7l5MP-18">
          <mxGeometry width="50" height="50" relative="1" as="geometry">
            <mxPoint x="1021.5699999999999" y="674" as="sourcePoint" />
            <mxPoint x="988.5699999999999" y="730" as="targetPoint" />
            <Array as="points">
              <mxPoint x="1057.57" y="730" />
            </Array>
          </mxGeometry>
        </mxCell>
        <mxCell id="jzX1-chcsxnyE8P7l5MP-264" value="" style="edgeStyle=orthogonalEdgeStyle;rounded=1;orthogonalLoop=1;jettySize=auto;html=1;curved=0;entryX=1;entryY=0.5;entryDx=0;entryDy=0;" edge="1" parent="1" target="jzX1-chcsxnyE8P7l5MP-176">
          <mxGeometry relative="1" as="geometry">
            <mxPoint x="1011.5699999999997" y="839.29" as="sourcePoint" />
          </mxGeometry>
        </mxCell>
        <mxCell id="jzX1-chcsxnyE8P7l5MP-123" value="Revisar Paseos&lt;div&gt;Agendados&lt;/div&gt;" style="whiteSpace=wrap;strokeWidth=2;shape=ellipse;perimeter=ellipsePerimeter;html=1;" vertex="1" parent="1">
          <mxGeometry x="937.5699999999998" y="830" width="148" height="34" as="geometry" />
        </mxCell>
        <mxCell id="jzX1-chcsxnyE8P7l5MP-127" value="" style="curved=1;endArrow=classic;html=1;rounded=0;entryX=1;entryY=0;entryDx=0;entryDy=0;exitX=0;exitY=1;exitDx=0;exitDy=0;" edge="1" parent="1" source="jzX1-chcsxnyE8P7l5MP-139" target="jzX1-chcsxnyE8P7l5MP-123">
          <mxGeometry width="50" height="50" relative="1" as="geometry">
            <mxPoint x="647.5699999999999" y="900" as="sourcePoint" />
            <mxPoint x="697.5699999999999" y="850" as="targetPoint" />
            <Array as="points">
              <mxPoint x="1087.57" y="710" />
            </Array>
          </mxGeometry>
        </mxCell>
        <mxCell id="jzX1-chcsxnyE8P7l5MP-295" value="Vista &quot;Agenda&quot;" style="edgeLabel;html=1;align=center;verticalAlign=middle;resizable=0;points=[];" connectable="0" vertex="1" parent="jzX1-chcsxnyE8P7l5MP-127">
          <mxGeometry x="-0.1632" y="8" relative="1" as="geometry">
            <mxPoint x="27" y="-35" as="offset" />
          </mxGeometry>
        </mxCell>
        <mxCell id="jzX1-chcsxnyE8P7l5MP-139" value="Ingresar a perfil&lt;div&gt;Paseador&lt;/div&gt;" style="whiteSpace=wrap;strokeWidth=4;shape=ellipse;perimeter=ellipsePerimeter;html=1;shadow=1;" vertex="1" parent="1">
          <mxGeometry x="1195.62" y="576" width="159" height="34" as="geometry" />
        </mxCell>
        <mxCell id="jzX1-chcsxnyE8P7l5MP-158" value="&#xa;" style="curved=1;startArrow=none;endArrow=block;rounded=0;entryX=0.577;entryY=0.029;entryDx=0;entryDy=0;entryPerimeter=0;exitX=0.5;exitY=1;exitDx=0;exitDy=0;" edge="1" parent="1" source="jzX1-chcsxnyE8P7l5MP-5" target="jzX1-chcsxnyE8P7l5MP-139">
          <mxGeometry x="0.0612" y="7" relative="1" as="geometry">
            <Array as="points">
              <mxPoint x="1314.62" y="530" />
            </Array>
            <mxPoint x="1217.62" y="743" as="sourcePoint" />
            <mxPoint x="1329.62" y="590" as="targetPoint" />
            <mxPoint as="offset" />
          </mxGeometry>
        </mxCell>
        <mxCell id="jzX1-chcsxnyE8P7l5MP-159" value="Redirecciona a&lt;div&gt;vista &quot;login&quot;&lt;/div&gt;" style="edgeLabel;html=1;align=center;verticalAlign=middle;resizable=0;points=[];" connectable="0" vertex="1" parent="jzX1-chcsxnyE8P7l5MP-158">
          <mxGeometry x="0.4088" y="1" relative="1" as="geometry">
            <mxPoint x="-8" y="-23" as="offset" />
          </mxGeometry>
        </mxCell>
        <mxCell id="jzX1-chcsxnyE8P7l5MP-164" value="Revisar Paseos&lt;div&gt;Agendados&lt;/div&gt;" style="whiteSpace=wrap;strokeWidth=2;shape=ellipse;perimeter=ellipsePerimeter;html=1;" vertex="1" parent="1">
          <mxGeometry x="500" y="290" width="120" height="34" as="geometry" />
        </mxCell>
        <mxCell id="jzX1-chcsxnyE8P7l5MP-165" value="Recibir notificación&lt;div&gt;de inicio de servicio&lt;/div&gt;" style="whiteSpace=wrap;strokeWidth=2;shape=ellipse;perimeter=ellipsePerimeter;html=1;" vertex="1" parent="1">
          <mxGeometry x="275.5" y="500" width="148" height="51" as="geometry" />
        </mxCell>
        <mxCell id="jzX1-chcsxnyE8P7l5MP-167" value="" style="curved=1;startArrow=none;endArrow=block;entryX=0.5;entryY=0;rounded=0;entryDx=0;entryDy=0;exitX=0;exitY=0.5;exitDx=0;exitDy=0;entryPerimeter=0;" edge="1" parent="1" source="jzX1-chcsxnyE8P7l5MP-3" target="jzX1-chcsxnyE8P7l5MP-164">
          <mxGeometry relative="1" as="geometry">
            <Array as="points">
              <mxPoint x="600" y="140" />
            </Array>
            <mxPoint x="793" y="145" as="sourcePoint" />
            <mxPoint x="829" y="302" as="targetPoint" />
          </mxGeometry>
        </mxCell>
        <mxCell id="jzX1-chcsxnyE8P7l5MP-168" value="" style="curved=1;startArrow=none;endArrow=block;rounded=0;exitX=0;exitY=1;exitDx=0;exitDy=0;entryX=0.579;entryY=0.056;entryDx=0;entryDy=0;entryPerimeter=0;" edge="1" parent="1" source="jzX1-chcsxnyE8P7l5MP-164" target="jzX1-chcsxnyE8P7l5MP-165">
          <mxGeometry relative="1" as="geometry">
            <Array as="points">
              <mxPoint x="380" y="350" />
            </Array>
            <mxPoint x="728" y="140" as="sourcePoint" />
            <mxPoint x="531" y="453" as="targetPoint" />
          </mxGeometry>
        </mxCell>
        <mxCell id="jzX1-chcsxnyE8P7l5MP-169" value="" style="endArrow=none;dashed=1;html=1;rounded=0;shadow=0;flowAnimation=1;dashPattern=1 4;strokeWidth=2;strokeColor=#737373;" edge="1" parent="1" target="jzX1-chcsxnyE8P7l5MP-164">
          <mxGeometry width="50" height="50" relative="1" as="geometry">
            <mxPoint x="610" y="624" as="sourcePoint" />
            <mxPoint x="616" y="550" as="targetPoint" />
            <Array as="points">
              <mxPoint x="610" y="560" />
            </Array>
          </mxGeometry>
        </mxCell>
        <mxCell id="jzX1-chcsxnyE8P7l5MP-170" value="Consulta de&amp;nbsp;&lt;div style=&quot;font-size: 10px;&quot;&gt;información&lt;/div&gt;" style="edgeLabel;html=1;align=center;verticalAlign=middle;resizable=0;points=[];fontColor=#919191;fontSize=10;" connectable="0" vertex="1" parent="jzX1-chcsxnyE8P7l5MP-169">
          <mxGeometry x="-0.1807" y="-2" relative="1" as="geometry">
            <mxPoint x="-5" y="-98" as="offset" />
          </mxGeometry>
        </mxCell>
        <mxCell id="jzX1-chcsxnyE8P7l5MP-172" value="" style="endArrow=none;dashed=1;html=1;strokeWidth=2;rounded=0;exitX=0.04;exitY=0.754;exitDx=0;exitDy=0;exitPerimeter=0;shadow=0;flowAnimation=1;dashPattern=1 4;strokeColor=#737373;entryX=0.748;entryY=0.015;entryDx=0;entryDy=0;entryPerimeter=0;" edge="1" parent="1" source="jzX1-chcsxnyE8P7l5MP-65" target="jzX1-chcsxnyE8P7l5MP-94">
          <mxGeometry width="50" height="50" relative="1" as="geometry">
            <mxPoint x="538" y="633" as="sourcePoint" />
            <mxPoint x="1040" y="490" as="targetPoint" />
            <Array as="points">
              <mxPoint x="1030" y="440" />
              <mxPoint x="810" y="560" />
              <mxPoint x="724" y="590" />
            </Array>
          </mxGeometry>
        </mxCell>
        <mxCell id="jzX1-chcsxnyE8P7l5MP-173" value="Registro&lt;div style=&quot;font-size: 10px;&quot;&gt;Nueva&amp;nbsp;&lt;/div&gt;&lt;div style=&quot;font-size: 10px;&quot;&gt;contraseña&lt;/div&gt;" style="edgeLabel;html=1;align=center;verticalAlign=middle;resizable=0;points=[];fontColor=#787878;fontSize=10;" connectable="0" vertex="1" parent="jzX1-chcsxnyE8P7l5MP-172">
          <mxGeometry x="0.0134" relative="1" as="geometry">
            <mxPoint x="31" y="-17" as="offset" />
          </mxGeometry>
        </mxCell>
        <mxCell id="3uP-atdIPFYlUxW9sZs0-6" value="" style="edgeStyle=orthogonalEdgeStyle;rounded=0;orthogonalLoop=1;jettySize=auto;html=1;" edge="1" parent="1" source="jzX1-chcsxnyE8P7l5MP-176" target="jzX1-chcsxnyE8P7l5MP-177">
          <mxGeometry relative="1" as="geometry" />
        </mxCell>
        <mxCell id="jzX1-chcsxnyE8P7l5MP-176" value="Confirmar inicio de&lt;div&gt;de servicio&lt;/div&gt;" style="whiteSpace=wrap;strokeWidth=2;shape=ellipse;perimeter=ellipsePerimeter;html=1;" vertex="1" parent="1">
          <mxGeometry x="830.9999999999999" y="885.29" width="129" height="44" as="geometry" />
        </mxCell>
        <mxCell id="jzX1-chcsxnyE8P7l5MP-260" value="" style="edgeStyle=orthogonalEdgeStyle;rounded=1;orthogonalLoop=1;jettySize=auto;html=1;curved=0;" edge="1" parent="1" source="jzX1-chcsxnyE8P7l5MP-177" target="jzX1-chcsxnyE8P7l5MP-249">
          <mxGeometry relative="1" as="geometry" />
        </mxCell>
        <mxCell id="jzX1-chcsxnyE8P7l5MP-177" value="Confirmar retiro&lt;div&gt;de mascota&lt;/div&gt;" style="whiteSpace=wrap;strokeWidth=2;shape=ellipse;perimeter=ellipsePerimeter;html=1;" vertex="1" parent="1">
          <mxGeometry x="681.95" y="885.29" width="128.05" height="44" as="geometry" />
        </mxCell>
        <mxCell id="jzX1-chcsxnyE8P7l5MP-178" value="Monitorear paseo" style="whiteSpace=wrap;strokeWidth=2;shape=ellipse;perimeter=ellipsePerimeter;html=1;" vertex="1" parent="1">
          <mxGeometry x="299.5" y="678.71" width="100" height="44" as="geometry" />
        </mxCell>
        <mxCell id="jzX1-chcsxnyE8P7l5MP-179" value="Reportar incidencia" style="whiteSpace=wrap;strokeWidth=2;shape=ellipse;perimeter=ellipsePerimeter;html=1;" vertex="1" parent="1">
          <mxGeometry x="1047.57" y="264" width="119" height="43.79" as="geometry" />
        </mxCell>
        <mxCell id="jzX1-chcsxnyE8P7l5MP-181" value="" style="curved=1;endArrow=classic;html=1;rounded=0;exitX=0.357;exitY=-0.028;exitDx=0;exitDy=0;exitPerimeter=0;entryX=0.5;entryY=1;entryDx=0;entryDy=0;" edge="1" parent="1" source="jzX1-chcsxnyE8P7l5MP-139">
          <mxGeometry width="50" height="50" relative="1" as="geometry">
            <mxPoint x="1142.07" y="581" as="sourcePoint" />
            <mxPoint x="1107.5700000000004" y="307.78999999999996" as="targetPoint" />
            <Array as="points">
              <mxPoint x="1108.07" y="410" />
            </Array>
          </mxGeometry>
        </mxCell>
        <mxCell id="jzX1-chcsxnyE8P7l5MP-182" value="Ingresa a vista&lt;div&gt;&quot;reportes&quot;&lt;/div&gt;" style="edgeLabel;html=1;align=center;verticalAlign=middle;resizable=0;points=[];" connectable="0" vertex="1" parent="jzX1-chcsxnyE8P7l5MP-181">
          <mxGeometry x="0.6743" y="-2" relative="1" as="geometry">
            <mxPoint x="57" y="115" as="offset" />
          </mxGeometry>
        </mxCell>
        <mxCell id="jzX1-chcsxnyE8P7l5MP-183" value="" style="curved=1;endArrow=classic;html=1;rounded=0;exitX=1;exitY=0.5;exitDx=0;exitDy=0;" edge="1" parent="1" source="jzX1-chcsxnyE8P7l5MP-3" target="jzX1-chcsxnyE8P7l5MP-179">
          <mxGeometry width="50" height="50" relative="1" as="geometry">
            <mxPoint x="1138" y="565" as="sourcePoint" />
            <mxPoint x="1022" y="170" as="targetPoint" />
            <Array as="points">
              <mxPoint x="950" y="140" />
            </Array>
          </mxGeometry>
        </mxCell>
        <mxCell id="jzX1-chcsxnyE8P7l5MP-184" value="Ingresa a vista&lt;div&gt;&quot;reportes&quot;&lt;/div&gt;" style="edgeLabel;html=1;align=center;verticalAlign=middle;resizable=0;points=[];" connectable="0" vertex="1" parent="jzX1-chcsxnyE8P7l5MP-183">
          <mxGeometry x="0.6743" y="-2" relative="1" as="geometry">
            <mxPoint x="-11" y="-19" as="offset" />
          </mxGeometry>
        </mxCell>
        <mxCell id="jzX1-chcsxnyE8P7l5MP-187" value="" style="endArrow=none;html=1;strokeWidth=2;rounded=0;exitX=0.235;exitY=0.913;exitDx=0;exitDy=0;exitPerimeter=0;shadow=0;flowAnimation=1;curved=0;dashed=1;dashPattern=1 4;strokeColor=#737373;entryX=0.693;entryY=0.055;entryDx=0;entryDy=0;entryPerimeter=0;" edge="1" parent="1" source="jzX1-chcsxnyE8P7l5MP-179" target="jzX1-chcsxnyE8P7l5MP-94">
          <mxGeometry width="50" height="50" relative="1" as="geometry">
            <mxPoint x="719" y="637" as="sourcePoint" />
            <mxPoint x="1000" y="400" as="targetPoint" />
            <Array as="points">
              <mxPoint x="1000" y="380" />
              <mxPoint x="800" y="540" />
              <mxPoint x="712" y="580" />
            </Array>
          </mxGeometry>
        </mxCell>
        <mxCell id="jzX1-chcsxnyE8P7l5MP-188" value="Registra&lt;div style=&quot;font-size: 10px;&quot;&gt;Reporte&lt;/div&gt;" style="edgeLabel;html=1;align=center;verticalAlign=middle;resizable=0;points=[];fontColor=#787878;fontSize=10;" connectable="0" vertex="1" parent="jzX1-chcsxnyE8P7l5MP-187">
          <mxGeometry x="0.0134" relative="1" as="geometry">
            <mxPoint x="23" y="-24" as="offset" />
          </mxGeometry>
        </mxCell>
        <mxCell id="jzX1-chcsxnyE8P7l5MP-193" value="Confirmar Servicio&amp;nbsp;&lt;div&gt;y Recepción&amp;nbsp;&lt;div&gt;de Mascota&lt;/div&gt;&lt;/div&gt;" style="whiteSpace=wrap;strokeWidth=2;shape=ellipse;perimeter=ellipsePerimeter;html=1;" vertex="1" parent="1">
          <mxGeometry x="287.75" y="760" width="134.5" height="55" as="geometry" />
        </mxCell>
        <mxCell id="jzX1-chcsxnyE8P7l5MP-194" value="Confirmar entrega de mascota" style="whiteSpace=wrap;strokeWidth=2;shape=ellipse;perimeter=ellipsePerimeter;html=1;" vertex="1" parent="1">
          <mxGeometry x="284.5" y="587.71" width="130" height="45" as="geometry" />
        </mxCell>
        <mxCell id="jzX1-chcsxnyE8P7l5MP-195" value="Chatear con paseador" style="whiteSpace=wrap;strokeWidth=2;shape=ellipse;perimeter=ellipsePerimeter;html=1;" vertex="1" parent="1">
          <mxGeometry x="440" y="502" width="110" height="47" as="geometry" />
        </mxCell>
        <mxCell id="jzX1-chcsxnyE8P7l5MP-196" value="" style="curved=1;startArrow=none;endArrow=block;rounded=0;exitX=0.5;exitY=1;exitDx=0;exitDy=0;" edge="1" parent="1" source="jzX1-chcsxnyE8P7l5MP-165" target="jzX1-chcsxnyE8P7l5MP-194">
          <mxGeometry relative="1" as="geometry">
            <Array as="points" />
            <mxPoint x="492" y="339" as="sourcePoint" />
            <mxPoint x="411" y="502" as="targetPoint" />
          </mxGeometry>
        </mxCell>
        <mxCell id="jzX1-chcsxnyE8P7l5MP-197" value="" style="endArrow=classic;html=1;rounded=0;entryX=0.5;entryY=0;entryDx=0;entryDy=0;exitX=0.5;exitY=1;exitDx=0;exitDy=0;" edge="1" parent="1" source="jzX1-chcsxnyE8P7l5MP-194" target="jzX1-chcsxnyE8P7l5MP-178">
          <mxGeometry width="50" height="50" relative="1" as="geometry">
            <mxPoint x="275" y="560" as="sourcePoint" />
            <mxPoint x="325" y="510" as="targetPoint" />
          </mxGeometry>
        </mxCell>
        <mxCell id="jzX1-chcsxnyE8P7l5MP-199" value="" style="curved=1;endArrow=classic;html=1;rounded=0;exitX=0.953;exitY=0.339;exitDx=0;exitDy=0;exitPerimeter=0;" edge="1" parent="1" source="jzX1-chcsxnyE8P7l5MP-165" target="jzX1-chcsxnyE8P7l5MP-195">
          <mxGeometry width="50" height="50" relative="1" as="geometry">
            <mxPoint x="265" y="600" as="sourcePoint" />
            <mxPoint x="325" y="510" as="targetPoint" />
            <Array as="points">
              <mxPoint x="450" y="500" />
            </Array>
          </mxGeometry>
        </mxCell>
        <mxCell id="jzX1-chcsxnyE8P7l5MP-206" value="" style="endArrow=none;dashed=1;html=1;rounded=0;exitX=0.932;exitY=0.783;exitDx=0;exitDy=0;flowAnimation=1;exitPerimeter=0;dashPattern=1 4;strokeWidth=2;strokeColor=#737373;" edge="1" parent="1" source="jzX1-chcsxnyE8P7l5MP-49">
          <mxGeometry width="50" height="50" relative="1" as="geometry">
            <mxPoint x="400" y="244.70999999999998" as="sourcePoint" />
            <mxPoint x="600" y="630" as="targetPoint" />
            <Array as="points">
              <mxPoint x="443" y="283.71" />
              <mxPoint x="550" y="390" />
              <mxPoint x="600" y="560" />
            </Array>
          </mxGeometry>
        </mxCell>
        <mxCell id="jzX1-chcsxnyE8P7l5MP-207" value="Registro&lt;div&gt;Nueva&amp;nbsp;&lt;/div&gt;&lt;div&gt;contraseña&lt;/div&gt;" style="edgeLabel;html=1;align=center;verticalAlign=middle;resizable=0;points=[];fontColor=#919191;" connectable="0" vertex="1" parent="jzX1-chcsxnyE8P7l5MP-206">
          <mxGeometry x="-0.7698" y="1" relative="1" as="geometry">
            <mxPoint x="11" y="7" as="offset" />
          </mxGeometry>
        </mxCell>
        <mxCell id="jzX1-chcsxnyE8P7l5MP-216" value="" style="endArrow=classic;html=1;rounded=0;exitX=0.5;exitY=1;exitDx=0;exitDy=0;" edge="1" parent="1" source="jzX1-chcsxnyE8P7l5MP-178" target="jzX1-chcsxnyE8P7l5MP-193">
          <mxGeometry width="50" height="50" relative="1" as="geometry">
            <mxPoint x="429" y="691" as="sourcePoint" />
            <mxPoint x="425" y="730" as="targetPoint" />
          </mxGeometry>
        </mxCell>
        <mxCell id="jzX1-chcsxnyE8P7l5MP-219" value="" style="endArrow=none;dashed=1;html=1;rounded=0;exitX=1;exitY=0.5;exitDx=0;exitDy=0;entryX=0;entryY=0.452;entryDx=0;entryDy=0;entryPerimeter=0;flowAnimation=1;dashPattern=1 4;strokeWidth=2;strokeColor=#737373;" edge="1" parent="1" source="jzX1-chcsxnyE8P7l5MP-194" target="jzX1-chcsxnyE8P7l5MP-94">
          <mxGeometry width="50" height="50" relative="1" as="geometry">
            <mxPoint x="432" y="550" as="sourcePoint" />
            <mxPoint x="510" y="664" as="targetPoint" />
            <Array as="points">
              <mxPoint x="530" y="650" />
            </Array>
          </mxGeometry>
        </mxCell>
        <mxCell id="jzX1-chcsxnyE8P7l5MP-222" value="" style="endArrow=none;dashed=1;html=1;rounded=0;exitX=-0.001;exitY=0.557;exitDx=0;exitDy=0;flowAnimation=1;dashPattern=1 4;strokeWidth=2;strokeColor=#737373;exitPerimeter=0;" edge="1" parent="1" source="jzX1-chcsxnyE8P7l5MP-94">
          <mxGeometry width="50" height="50" relative="1" as="geometry">
            <mxPoint x="435" y="629" as="sourcePoint" />
            <mxPoint x="393" y="690" as="targetPoint" />
            <Array as="points">
              <mxPoint x="530" y="657" />
            </Array>
          </mxGeometry>
        </mxCell>
        <mxCell id="jzX1-chcsxnyE8P7l5MP-224" value="&lt;div style=&quot;font-size: 10px;&quot;&gt;&lt;br&gt;&lt;/div&gt;" style="edgeLabel;html=1;align=center;verticalAlign=middle;resizable=0;points=[];fontSize=10;" connectable="0" vertex="1" parent="jzX1-chcsxnyE8P7l5MP-222">
          <mxGeometry x="0.4516" y="2" relative="1" as="geometry">
            <mxPoint x="-11" y="-1" as="offset" />
          </mxGeometry>
        </mxCell>
        <mxCell id="jzX1-chcsxnyE8P7l5MP-223" value="" style="endArrow=none;dashed=1;html=1;rounded=0;exitX=1;exitY=0;exitDx=0;exitDy=0;flowAnimation=1;dashPattern=1 4;strokeWidth=2;strokeColor=#737373;entryX=0;entryY=0;entryDx=0;entryDy=43.5;entryPerimeter=0;" edge="1" parent="1" source="jzX1-chcsxnyE8P7l5MP-193" target="jzX1-chcsxnyE8P7l5MP-94">
          <mxGeometry width="50" height="50" relative="1" as="geometry">
            <mxPoint x="400" y="698" as="sourcePoint" />
            <mxPoint x="562" y="660" as="targetPoint" />
            <Array as="points">
              <mxPoint x="530" y="663" />
            </Array>
          </mxGeometry>
        </mxCell>
        <mxCell id="jzX1-chcsxnyE8P7l5MP-228" value="" style="endArrow=none;dashed=1;html=1;rounded=0;entryX=0.062;entryY=0.099;entryDx=0;entryDy=0;entryPerimeter=0;flowAnimation=1;dashPattern=1 4;strokeWidth=2;strokeColor=#737373;exitX=0.736;exitY=0.945;exitDx=0;exitDy=0;exitPerimeter=0;" edge="1" parent="1" source="jzX1-chcsxnyE8P7l5MP-195" target="jzX1-chcsxnyE8P7l5MP-94">
          <mxGeometry width="50" height="50" relative="1" as="geometry">
            <mxPoint x="560.1099999999999" y="554.3379999999997" as="sourcePoint" />
            <mxPoint x="613.78" y="573.56" as="targetPoint" />
            <Array as="points" />
          </mxGeometry>
        </mxCell>
        <mxCell id="jzX1-chcsxnyE8P7l5MP-232" value="&lt;font style=&quot;font-size: 9px;&quot; color=&quot;#7d7d7d&quot;&gt;Registro&lt;/font&gt;&lt;div style=&quot;font-size: 9px;&quot;&gt;&lt;font style=&quot;font-size: 9px;&quot; color=&quot;#7d7d7d&quot;&gt;de mensaje&lt;/font&gt;&lt;/div&gt;" style="edgeLabel;html=1;align=center;verticalAlign=middle;resizable=0;points=[];fontSize=9;" connectable="0" vertex="1" parent="jzX1-chcsxnyE8P7l5MP-228">
          <mxGeometry x="-0.413" relative="1" as="geometry">
            <mxPoint x="7" y="9" as="offset" />
          </mxGeometry>
        </mxCell>
        <mxCell id="jzX1-chcsxnyE8P7l5MP-234" value="Calificar&amp;nbsp;&lt;div&gt;Paseo&lt;/div&gt;" style="whiteSpace=wrap;strokeWidth=2;shape=ellipse;perimeter=ellipsePerimeter;html=1;" vertex="1" parent="1">
          <mxGeometry x="350" y="844.71" width="100" height="51.29" as="geometry" />
        </mxCell>
        <mxCell id="3uP-atdIPFYlUxW9sZs0-25" value="" style="edgeStyle=orthogonalEdgeStyle;rounded=0;orthogonalLoop=1;jettySize=auto;html=1;" edge="1" parent="1" source="jzX1-chcsxnyE8P7l5MP-240" target="8BeWRdgZwjnDW6WWbOuy-1">
          <mxGeometry relative="1" as="geometry" />
        </mxCell>
        <mxCell id="jzX1-chcsxnyE8P7l5MP-240" value="Pagar servicio" style="whiteSpace=wrap;strokeWidth=2;shape=ellipse;perimeter=ellipsePerimeter;html=1;" vertex="1" parent="1">
          <mxGeometry x="414.5" y="385.29" width="119" height="34" as="geometry" />
        </mxCell>
        <mxCell id="jzX1-chcsxnyE8P7l5MP-242" value="" style="curved=1;startArrow=none;endArrow=block;entryX=0.952;entryY=0.749;rounded=0;entryDx=0;entryDy=0;exitX=0.095;exitY=0.233;exitDx=0;exitDy=0;exitPerimeter=0;entryPerimeter=0;" edge="1" parent="1" source="jzX1-chcsxnyE8P7l5MP-90" target="jzX1-chcsxnyE8P7l5MP-240">
          <mxGeometry relative="1" as="geometry">
            <Array as="points">
              <mxPoint x="570" y="440" />
            </Array>
            <mxPoint x="577" y="429.79" as="sourcePoint" />
            <mxPoint x="560" y="490.79" as="targetPoint" />
          </mxGeometry>
        </mxCell>
        <mxCell id="jzX1-chcsxnyE8P7l5MP-245" value="" style="endArrow=classic;html=1;rounded=0;exitX=0.552;exitY=0.998;exitDx=0;exitDy=0;entryX=0.238;entryY=0.12;entryDx=0;entryDy=0;entryPerimeter=0;exitPerimeter=0;" edge="1" parent="1" source="jzX1-chcsxnyE8P7l5MP-193" target="jzX1-chcsxnyE8P7l5MP-234">
          <mxGeometry width="50" height="50" relative="1" as="geometry">
            <mxPoint x="423.5" y="794" as="sourcePoint" />
            <mxPoint x="421.5" y="829" as="targetPoint" />
            <Array as="points">
              <mxPoint x="370" y="840" />
            </Array>
          </mxGeometry>
        </mxCell>
        <mxCell id="jzX1-chcsxnyE8P7l5MP-246" value="" style="endArrow=none;dashed=1;html=1;rounded=0;entryX=-0.001;entryY=0.732;entryDx=0;entryDy=0;entryPerimeter=0;flowAnimation=1;dashPattern=1 4;strokeWidth=2;strokeColor=#737373;exitX=1;exitY=0;exitDx=0;exitDy=0;" edge="1" parent="1" source="jzX1-chcsxnyE8P7l5MP-234" target="jzX1-chcsxnyE8P7l5MP-94">
          <mxGeometry width="50" height="50" relative="1" as="geometry">
            <mxPoint x="500" y="743" as="sourcePoint" />
            <mxPoint x="535" y="811" as="targetPoint" />
            <Array as="points">
              <mxPoint x="530" y="670" />
            </Array>
          </mxGeometry>
        </mxCell>
        <mxCell id="jzX1-chcsxnyE8P7l5MP-247" value="&lt;font color=&quot;#7d7d7d&quot;&gt;Registrar&lt;/font&gt;&lt;br&gt;&lt;div&gt;&lt;font color=&quot;#7d7d7d&quot;&gt;calificación&lt;/font&gt;&lt;/div&gt;" style="edgeLabel;html=1;align=center;verticalAlign=middle;resizable=0;points=[];fontSize=10;" connectable="0" vertex="1" parent="jzX1-chcsxnyE8P7l5MP-246">
          <mxGeometry x="-0.413" relative="1" as="geometry">
            <mxPoint x="-12" y="11" as="offset" />
          </mxGeometry>
        </mxCell>
        <mxCell id="3uP-atdIPFYlUxW9sZs0-13" value="" style="edgeStyle=orthogonalEdgeStyle;rounded=0;orthogonalLoop=1;jettySize=auto;html=1;curved=1;exitX=0;exitY=0.5;exitDx=0;exitDy=0;" edge="1" parent="1" source="jzX1-chcsxnyE8P7l5MP-249" target="jzX1-chcsxnyE8P7l5MP-250">
          <mxGeometry relative="1" as="geometry">
            <mxPoint x="584" y="850" as="sourcePoint" />
          </mxGeometry>
        </mxCell>
        <mxCell id="jzX1-chcsxnyE8P7l5MP-249" value="Anunciar&lt;div&gt;entrega de mascota&lt;/div&gt;" style="whiteSpace=wrap;strokeWidth=2;shape=ellipse;perimeter=ellipsePerimeter;html=1;" vertex="1" parent="1">
          <mxGeometry x="681.95" y="820" width="128.05" height="44" as="geometry" />
        </mxCell>
        <mxCell id="jzX1-chcsxnyE8P7l5MP-250" value="Confirmar servicio&amp;nbsp;&lt;div&gt;y entrega&lt;div&gt;de Mascota&lt;/div&gt;&lt;/div&gt;" style="whiteSpace=wrap;strokeWidth=2;shape=ellipse;perimeter=ellipsePerimeter;html=1;" vertex="1" parent="1">
          <mxGeometry x="570" y="760" width="128.05" height="60" as="geometry" />
        </mxCell>
        <mxCell id="jzX1-chcsxnyE8P7l5MP-257" value="Revisar Historial&amp;nbsp;&lt;div&gt;de paseos&lt;br&gt;&lt;/div&gt;" style="whiteSpace=wrap;strokeWidth=2;shape=ellipse;perimeter=ellipsePerimeter;html=1;" vertex="1" parent="1">
          <mxGeometry x="1147.57" y="698.71" width="148" height="34" as="geometry" />
        </mxCell>
        <mxCell id="jzX1-chcsxnyE8P7l5MP-266" value="" style="endArrow=none;dashed=1;html=1;rounded=0;exitX=0.5;exitY=0;exitDx=0;exitDy=0;flowAnimation=1;dashPattern=1 4;strokeWidth=2;strokeColor=#737373;entryX=0.541;entryY=0.97;entryDx=0;entryDy=0;entryPerimeter=0;" edge="1" parent="1" source="jzX1-chcsxnyE8P7l5MP-250" target="jzX1-chcsxnyE8P7l5MP-94">
          <mxGeometry width="50" height="50" relative="1" as="geometry">
            <mxPoint x="490" y="750" as="sourcePoint" />
            <mxPoint x="600" y="700" as="targetPoint" />
            <Array as="points">
              <mxPoint x="680" y="720" />
            </Array>
          </mxGeometry>
        </mxCell>
        <mxCell id="jzX1-chcsxnyE8P7l5MP-267" value="&lt;div style=&quot;font-size: 10px;&quot;&gt;&lt;br&gt;&lt;/div&gt;" style="edgeLabel;html=1;align=center;verticalAlign=middle;resizable=0;points=[];fontSize=10;" connectable="0" vertex="1" parent="jzX1-chcsxnyE8P7l5MP-266">
          <mxGeometry x="0.4516" y="2" relative="1" as="geometry">
            <mxPoint x="43" y="-2" as="offset" />
          </mxGeometry>
        </mxCell>
        <mxCell id="jzX1-chcsxnyE8P7l5MP-270" value="" style="endArrow=none;dashed=1;html=1;rounded=0;flowAnimation=1;dashPattern=1 4;strokeWidth=2;strokeColor=#737373;entryX=0.579;entryY=1.017;entryDx=0;entryDy=0;entryPerimeter=0;exitX=0.5;exitY=0;exitDx=0;exitDy=0;" edge="1" parent="1" source="jzX1-chcsxnyE8P7l5MP-249" target="jzX1-chcsxnyE8P7l5MP-94">
          <mxGeometry width="50" height="50" relative="1" as="geometry">
            <mxPoint x="720" y="840" as="sourcePoint" />
            <mxPoint x="610" y="690" as="targetPoint" />
            <Array as="points">
              <mxPoint x="746" y="760" />
              <mxPoint x="690" y="720" />
            </Array>
          </mxGeometry>
        </mxCell>
        <mxCell id="jzX1-chcsxnyE8P7l5MP-271" value="&lt;div style=&quot;font-size: 10px;&quot;&gt;&lt;br&gt;&lt;/div&gt;" style="edgeLabel;html=1;align=center;verticalAlign=middle;resizable=0;points=[];fontSize=10;" connectable="0" vertex="1" parent="jzX1-chcsxnyE8P7l5MP-270">
          <mxGeometry x="0.4516" y="2" relative="1" as="geometry">
            <mxPoint x="-11" y="-1" as="offset" />
          </mxGeometry>
        </mxCell>
        <mxCell id="jzX1-chcsxnyE8P7l5MP-277" value="" style="endArrow=none;dashed=1;html=1;rounded=0;flowAnimation=1;dashPattern=1 4;strokeWidth=2;strokeColor=#737373;exitX=0.873;exitY=0.065;exitDx=0;exitDy=0;exitPerimeter=0;" edge="1" parent="1" source="jzX1-chcsxnyE8P7l5MP-177">
          <mxGeometry width="50" height="50" relative="1" as="geometry">
            <mxPoint x="860" y="840" as="sourcePoint" />
            <mxPoint x="700" y="690" as="targetPoint" />
            <Array as="points">
              <mxPoint x="820" y="850" />
              <mxPoint x="820" y="800" />
              <mxPoint x="700" y="720" />
            </Array>
          </mxGeometry>
        </mxCell>
        <mxCell id="jzX1-chcsxnyE8P7l5MP-278" value="&lt;div style=&quot;font-size: 10px;&quot;&gt;&lt;br&gt;&lt;/div&gt;" style="edgeLabel;html=1;align=center;verticalAlign=middle;resizable=0;points=[];fontSize=10;" connectable="0" vertex="1" parent="jzX1-chcsxnyE8P7l5MP-277">
          <mxGeometry x="0.4516" y="2" relative="1" as="geometry">
            <mxPoint x="-11" y="-1" as="offset" />
          </mxGeometry>
        </mxCell>
        <mxCell id="jzX1-chcsxnyE8P7l5MP-281" value="" style="endArrow=none;dashed=1;html=1;dashPattern=1 4;strokeWidth=2;rounded=0;entryX=0;entryY=0.5;entryDx=0;entryDy=0;shadow=0;flowAnimation=1;strokeColor=#737373;" edge="1" parent="1" target="jzX1-chcsxnyE8P7l5MP-123">
          <mxGeometry width="50" height="50" relative="1" as="geometry">
            <mxPoint x="730" y="680" as="sourcePoint" />
            <mxPoint x="794.0299999999972" y="800" as="targetPoint" />
            <Array as="points">
              <mxPoint x="730" y="720" />
            </Array>
          </mxGeometry>
        </mxCell>
        <mxCell id="jzX1-chcsxnyE8P7l5MP-282" value="" style="endArrow=none;dashed=1;html=1;dashPattern=1 4;strokeWidth=2;rounded=0;exitX=0.327;exitY=0.015;exitDx=0;exitDy=0;shadow=0;flowAnimation=1;strokeColor=#737373;entryX=0.929;entryY=0.943;entryDx=0;entryDy=0;entryPerimeter=0;exitPerimeter=0;" edge="1" parent="1" source="jzX1-chcsxnyE8P7l5MP-18" target="jzX1-chcsxnyE8P7l5MP-94">
          <mxGeometry width="50" height="50" relative="1" as="geometry">
            <mxPoint x="800" y="750" as="sourcePoint" />
            <mxPoint x="710" y="699" as="targetPoint" />
            <Array as="points" />
          </mxGeometry>
        </mxCell>
        <mxCell id="jzX1-chcsxnyE8P7l5MP-283" value="Cobrar Pagos" style="whiteSpace=wrap;strokeWidth=2;shape=ellipse;perimeter=ellipsePerimeter;html=1;" vertex="1" parent="1">
          <mxGeometry x="1130" y="781" width="148" height="34" as="geometry" />
        </mxCell>
        <mxCell id="jzX1-chcsxnyE8P7l5MP-285" value="" style="curved=1;endArrow=classic;html=1;rounded=0;exitX=0.5;exitY=1;exitDx=0;exitDy=0;" edge="1" parent="1" source="jzX1-chcsxnyE8P7l5MP-139" target="jzX1-chcsxnyE8P7l5MP-257">
          <mxGeometry width="50" height="50" relative="1" as="geometry">
            <mxPoint x="1229.07" y="615" as="sourcePoint" />
            <mxPoint x="1015.0699999999999" y="837" as="targetPoint" />
            <Array as="points">
              <mxPoint x="1237.57" y="650" />
            </Array>
          </mxGeometry>
        </mxCell>
        <mxCell id="jzX1-chcsxnyE8P7l5MP-294" value="Vista &quot;paseos&quot;" style="edgeLabel;html=1;align=center;verticalAlign=middle;resizable=0;points=[];" connectable="0" vertex="1" parent="jzX1-chcsxnyE8P7l5MP-285">
          <mxGeometry x="-0.1247" y="12" relative="1" as="geometry">
            <mxPoint y="5" as="offset" />
          </mxGeometry>
        </mxCell>
        <mxCell id="jzX1-chcsxnyE8P7l5MP-288" value="" style="endArrow=none;dashed=1;html=1;rounded=0;flowAnimation=1;dashPattern=1 4;strokeWidth=2;strokeColor=#737373;exitX=0.952;exitY=0.808;exitDx=0;exitDy=0;exitPerimeter=0;entryX=0.076;entryY=0.158;entryDx=0;entryDy=0;entryPerimeter=0;" edge="1" parent="1" source="8BeWRdgZwjnDW6WWbOuy-1" target="jzX1-chcsxnyE8P7l5MP-94">
          <mxGeometry width="50" height="50" relative="1" as="geometry">
            <mxPoint x="533.5" y="476" as="sourcePoint" />
            <mxPoint x="590" y="630" as="targetPoint" />
            <Array as="points">
              <mxPoint x="580" y="550" />
            </Array>
          </mxGeometry>
        </mxCell>
        <mxCell id="jzX1-chcsxnyE8P7l5MP-300" value="" style="curved=1;endArrow=classic;html=1;rounded=0;entryX=1;entryY=0;entryDx=0;entryDy=0;exitX=0.753;exitY=0.93;exitDx=0;exitDy=0;exitPerimeter=0;" edge="1" parent="1" source="jzX1-chcsxnyE8P7l5MP-139" target="jzX1-chcsxnyE8P7l5MP-283">
          <mxGeometry width="50" height="50" relative="1" as="geometry">
            <mxPoint x="1297.57" y="630" as="sourcePoint" />
            <mxPoint x="1235.57" y="709" as="targetPoint" />
            <Array as="points">
              <mxPoint x="1337.57" y="710" />
            </Array>
          </mxGeometry>
        </mxCell>
        <mxCell id="jzX1-chcsxnyE8P7l5MP-301" value="Vista&amp;nbsp;&lt;div&gt;&quot;Finanzas&quot;&lt;/div&gt;" style="edgeLabel;html=1;align=center;verticalAlign=middle;resizable=0;points=[];" connectable="0" vertex="1" parent="jzX1-chcsxnyE8P7l5MP-300">
          <mxGeometry x="-0.1247" y="12" relative="1" as="geometry">
            <mxPoint x="-18" y="-4" as="offset" />
          </mxGeometry>
        </mxCell>
        <mxCell id="jzX1-chcsxnyE8P7l5MP-302" value="" style="endArrow=none;dashed=1;html=1;rounded=0;exitX=1;exitY=0;exitDx=0;exitDy=43.5;exitPerimeter=0;shadow=0;flowAnimation=1;dashPattern=1 4;strokeWidth=2;strokeColor=#737373;" edge="1" parent="1" source="jzX1-chcsxnyE8P7l5MP-94" target="jzX1-chcsxnyE8P7l5MP-257">
          <mxGeometry width="50" height="50" relative="1" as="geometry">
            <mxPoint x="734" y="665" as="sourcePoint" />
            <mxPoint x="880" y="647" as="targetPoint" />
          </mxGeometry>
        </mxCell>
        <mxCell id="jzX1-chcsxnyE8P7l5MP-303" value="" style="endArrow=none;dashed=1;html=1;dashPattern=1 4;strokeWidth=2;rounded=0;shadow=0;flowAnimation=1;strokeColor=#737373;entryX=1;entryY=1;entryDx=0;entryDy=-15;entryPerimeter=0;exitX=0;exitY=0;exitDx=0;exitDy=0;" edge="1" parent="1" source="jzX1-chcsxnyE8P7l5MP-283" target="jzX1-chcsxnyE8P7l5MP-94">
          <mxGeometry width="50" height="50" relative="1" as="geometry">
            <mxPoint x="820" y="737" as="sourcePoint" />
            <mxPoint x="730" y="687" as="targetPoint" />
            <Array as="points">
              <mxPoint x="1060" y="710" />
            </Array>
          </mxGeometry>
        </mxCell>
        <mxCell id="8BeWRdgZwjnDW6WWbOuy-1" value="Agendar paseo&lt;div&gt;Aprobado&lt;/div&gt;" style="whiteSpace=wrap;strokeWidth=2;shape=ellipse;perimeter=ellipsePerimeter;html=1;" vertex="1" parent="1">
          <mxGeometry x="414.5" y="450" width="119" height="34" as="geometry" />
        </mxCell>
        <mxCell id="3uP-atdIPFYlUxW9sZs0-3" value="" style="endArrow=none;dashed=1;html=1;rounded=0;exitX=0.42;exitY=0.052;exitDx=0;exitDy=0;flowAnimation=1;dashPattern=1 4;strokeWidth=2;strokeColor=#737373;entryX=0.672;entryY=1.017;entryDx=0;entryDy=0;entryPerimeter=0;exitPerimeter=0;" edge="1" parent="1" source="jzX1-chcsxnyE8P7l5MP-176" target="jzX1-chcsxnyE8P7l5MP-94">
          <mxGeometry width="50" height="50" relative="1" as="geometry">
            <mxPoint x="947" y="928" as="sourcePoint" />
            <mxPoint x="630" y="690" as="targetPoint" />
            <Array as="points">
              <mxPoint x="830" y="800" />
              <mxPoint x="710" y="720" />
            </Array>
          </mxGeometry>
        </mxCell>
        <mxCell id="3uP-atdIPFYlUxW9sZs0-24" value="" style="endArrow=none;dashed=1;html=1;rounded=0;exitX=0.824;exitY=0.847;exitDx=0;exitDy=0;entryX=0.011;entryY=0.293;entryDx=0;entryDy=0;entryPerimeter=0;flowAnimation=1;dashPattern=1 4;strokeWidth=2;strokeColor=#737373;exitPerimeter=0;" edge="1" parent="1" source="jzX1-chcsxnyE8P7l5MP-165" target="jzX1-chcsxnyE8P7l5MP-94">
          <mxGeometry width="50" height="50" relative="1" as="geometry">
            <mxPoint x="414" y="600" as="sourcePoint" />
            <mxPoint x="563" y="640" as="targetPoint" />
            <Array as="points">
              <mxPoint x="529" y="640" />
            </Array>
          </mxGeometry>
        </mxCell>
        <mxCell id="3uP-atdIPFYlUxW9sZs0-26" value="" style="endArrow=none;dashed=1;html=1;rounded=0;flowAnimation=1;dashPattern=1 4;strokeWidth=2;strokeColor=#737373;exitX=0.899;exitY=0.815;exitDx=0;exitDy=0;exitPerimeter=0;entryX=0.119;entryY=0.023;entryDx=0;entryDy=0;entryPerimeter=0;" edge="1" parent="1" source="jzX1-chcsxnyE8P7l5MP-240" target="jzX1-chcsxnyE8P7l5MP-94">
          <mxGeometry width="50" height="50" relative="1" as="geometry">
            <mxPoint x="533.5" y="428.71" as="sourcePoint" />
            <mxPoint x="585.5" y="587.71" as="targetPoint" />
            <Array as="points">
              <mxPoint x="589" y="550" />
            </Array>
          </mxGeometry>
        </mxCell>
        <mxCell id="3uP-atdIPFYlUxW9sZs0-27" value="Administrador" style="whiteSpace=wrap;strokeWidth=2;shape=umlActor;verticalLabelPosition=bottom;verticalAlign=top;html=1;outlineConnect=0;" vertex="1" parent="1">
          <mxGeometry x="140.0000000000001" y="960" width="50" height="94" as="geometry" />
        </mxCell>
        <mxCell id="3uP-atdIPFYlUxW9sZs0-28" value="Iniciar sesión (Administrador)" style="whiteSpace=wrap;strokeWidth=2;shape=ellipse;perimeter=ellipsePerimeter;html=1;" vertex="1" parent="1">
          <mxGeometry x="371.95000000000005" y="975.29" width="123" height="34" as="geometry" />
        </mxCell>
        <mxCell id="3uP-atdIPFYlUxW9sZs0-29" value="Ingresa a &#xa;vista &quot;login&quot;&#xa;&#xa;" style="curved=1;startArrow=none;endArrow=block;rounded=0;exitX=1;exitY=0.3333333333333333;exitDx=0;exitDy=0;exitPerimeter=0;fontSize=10;" edge="1" parent="1" source="3uP-atdIPFYlUxW9sZs0-27" target="3uP-atdIPFYlUxW9sZs0-28">
          <mxGeometry x="0.1979" y="-15" relative="1" as="geometry">
            <Array as="points" />
            <mxPoint x="241.95000000000002" y="991.3333333333333" as="sourcePoint" />
            <mxPoint as="offset" />
          </mxGeometry>
        </mxCell>
        <mxCell id="3uP-atdIPFYlUxW9sZs0-30" value="&lt;span style=&quot;font-size: 11px; text-wrap: nowrap; background-color: rgb(255, 255, 255);&quot;&gt;Recuperar&amp;nbsp;&lt;/span&gt;&lt;div&gt;&lt;span style=&quot;font-size: 11px; text-wrap: nowrap; background-color: rgb(255, 255, 255);&quot;&gt;contraseña&lt;/span&gt;&lt;/div&gt;" style="whiteSpace=wrap;strokeWidth=2;shape=ellipse;perimeter=ellipsePerimeter;html=1;" vertex="1" parent="1">
          <mxGeometry x="311.39999999999975" y="1115.5" width="96.05" height="40" as="geometry" />
        </mxCell>
        <mxCell id="3uP-atdIPFYlUxW9sZs0-31" value="ingresa a función&#xa;&quot;Recuperar contraseña&quot;&#xa;en vista &quot;login&quot;&#xa;" style="curved=1;startArrow=none;endArrow=block;rounded=0;entryX=0.269;entryY=0.107;entryDx=0;entryDy=0;exitX=1;exitY=0.3333333333333333;exitDx=0;exitDy=0;exitPerimeter=0;fontSize=10;entryPerimeter=0;" edge="1" parent="1" source="3uP-atdIPFYlUxW9sZs0-27" target="3uP-atdIPFYlUxW9sZs0-30">
          <mxGeometry x="0.0816" y="-28" relative="1" as="geometry">
            <Array as="points">
              <mxPoint x="331.95000000000005" y="1065.29" />
            </Array>
            <mxPoint x="241.95000000000002" y="991.3333333333333" as="sourcePoint" />
            <mxPoint x="71.90000000000005" y="652" as="targetPoint" />
            <mxPoint as="offset" />
          </mxGeometry>
        </mxCell>
        <mxCell id="3uP-atdIPFYlUxW9sZs0-33" value="&#xa;" style="curved=1;startArrow=none;endArrow=block;rounded=0;entryX=0.796;entryY=0.128;entryDx=0;entryDy=0;entryPerimeter=0;exitX=1;exitY=1;exitDx=0;exitDy=0;" edge="1" parent="1" source="3uP-atdIPFYlUxW9sZs0-30" target="3uP-atdIPFYlUxW9sZs0-32">
          <mxGeometry x="0.4629" y="40" relative="1" as="geometry">
            <Array as="points">
              <mxPoint x="421.95000000000005" y="1205.29" />
            </Array>
            <mxPoint x="-112.60000000000018" y="912.5799999999999" as="sourcePoint" />
            <mxPoint x="-8.600000000000183" y="1064.58" as="targetPoint" />
            <mxPoint as="offset" />
          </mxGeometry>
        </mxCell>
        <mxCell id="3uP-atdIPFYlUxW9sZs0-34" value="Proporciona correo&lt;div&gt;registrado&lt;/div&gt;" style="edgeLabel;html=1;align=center;verticalAlign=middle;resizable=0;points=[];" connectable="0" vertex="1" parent="3uP-atdIPFYlUxW9sZs0-33">
          <mxGeometry x="0.4088" y="1" relative="1" as="geometry">
            <mxPoint x="-1" y="-30" as="offset" />
          </mxGeometry>
        </mxCell>
        <mxCell id="3uP-atdIPFYlUxW9sZs0-35" value="&#xa;" style="curved=1;startArrow=none;endArrow=block;rounded=0;entryX=0.5;entryY=1;entryDx=0;entryDy=0;exitX=0.736;exitY=-0.046;exitDx=0;exitDy=0;exitPerimeter=0;" edge="1" parent="1" source="3uP-atdIPFYlUxW9sZs0-30" target="3uP-atdIPFYlUxW9sZs0-28">
          <mxGeometry x="0.0612" y="7" relative="1" as="geometry">
            <Array as="points">
              <mxPoint x="421.95000000000005" y="1085.29" />
            </Array>
            <mxPoint x="11.399999999999817" y="996" as="sourcePoint" />
            <mxPoint x="150.34999999999985" y="630" as="targetPoint" />
            <mxPoint as="offset" />
          </mxGeometry>
        </mxCell>
        <mxCell id="3uP-atdIPFYlUxW9sZs0-36" value="Redirecciona a&lt;div style=&quot;font-size: 10px;&quot;&gt;vista &quot;login&quot;&lt;/div&gt;" style="edgeLabel;html=1;align=center;verticalAlign=middle;resizable=0;points=[];fontSize=10;" connectable="0" vertex="1" parent="3uP-atdIPFYlUxW9sZs0-35">
          <mxGeometry x="-0.0331" y="2" relative="1" as="geometry">
            <mxPoint x="-21" y="15" as="offset" />
          </mxGeometry>
        </mxCell>
        <mxCell id="3uP-atdIPFYlUxW9sZs0-37" value="&#xa;" style="curved=1;startArrow=none;endArrow=block;rounded=0;entryX=0.22;entryY=0.917;entryDx=0;entryDy=0;entryPerimeter=0;exitX=0.342;exitY=-0.021;exitDx=0;exitDy=0;exitPerimeter=0;" edge="1" parent="1" source="3uP-atdIPFYlUxW9sZs0-32" target="3uP-atdIPFYlUxW9sZs0-30">
          <mxGeometry x="-0.1941" y="-3" relative="1" as="geometry">
            <Array as="points">
              <mxPoint x="301.95000000000005" y="1205.29" />
            </Array>
            <mxPoint x="369.95000000000005" y="1345.29" as="sourcePoint" />
            <mxPoint x="173.94999999999976" y="992" as="targetPoint" />
            <mxPoint as="offset" />
          </mxGeometry>
        </mxCell>
        <mxCell id="3uP-atdIPFYlUxW9sZs0-38" value="Define nueva&amp;nbsp;&lt;div&gt;contraseña&lt;/div&gt;" style="edgeLabel;html=1;align=center;verticalAlign=middle;resizable=0;points=[];" connectable="0" vertex="1" parent="3uP-atdIPFYlUxW9sZs0-37">
          <mxGeometry x="0.4088" y="1" relative="1" as="geometry">
            <mxPoint x="-6" y="10" as="offset" />
          </mxGeometry>
        </mxCell>
        <mxCell id="3uP-atdIPFYlUxW9sZs0-39" value="Ingresar a perfil&lt;div&gt;Adminsitrador&lt;/div&gt;" style="whiteSpace=wrap;strokeWidth=4;shape=ellipse;perimeter=ellipsePerimeter;html=1;shadow=1;" vertex="1" parent="1">
          <mxGeometry x="455.45000000000005" y="1054" width="159" height="34" as="geometry" />
        </mxCell>
        <mxCell id="3uP-atdIPFYlUxW9sZs0-40" value="&#xa;" style="curved=1;startArrow=none;endArrow=block;rounded=0;exitX=1;exitY=0.5;exitDx=0;exitDy=0;entryX=0.5;entryY=0;entryDx=0;entryDy=0;" edge="1" parent="1" source="3uP-atdIPFYlUxW9sZs0-28" target="3uP-atdIPFYlUxW9sZs0-39">
          <mxGeometry x="-0.1391" y="-14" relative="1" as="geometry">
            <Array as="points">
              <mxPoint x="534.95" y="1015.29" />
            </Array>
            <mxPoint x="511.9499999999964" y="989.9999999999998" as="sourcePoint" />
            <mxPoint x="618.950000000001" y="1023.9999999999998" as="targetPoint" />
            <mxPoint as="offset" />
          </mxGeometry>
        </mxCell>
        <mxCell id="3uP-atdIPFYlUxW9sZs0-41" value="Redirecciona a&lt;div style=&quot;font-size: 10px;&quot;&gt;vista &quot;login&quot;&lt;/div&gt;" style="edgeLabel;html=1;align=center;verticalAlign=middle;resizable=0;points=[];fontSize=10;" connectable="0" vertex="1" parent="3uP-atdIPFYlUxW9sZs0-40">
          <mxGeometry x="0.4088" y="1" relative="1" as="geometry">
            <mxPoint x="-9" y="-14" as="offset" />
          </mxGeometry>
        </mxCell>
        <mxCell id="3uP-atdIPFYlUxW9sZs0-32" value="&lt;span style=&quot;font-size: 11px; text-wrap: nowrap; background-color: rgb(255, 255, 255);&quot;&gt;Verificar&amp;nbsp;&lt;/span&gt;&lt;div&gt;&lt;span style=&quot;font-size: 11px; text-wrap: nowrap; background-color: rgb(255, 255, 255);&quot;&gt;correo electrónico&lt;/span&gt;&lt;/div&gt;" style="whiteSpace=wrap;strokeWidth=2;shape=ellipse;perimeter=ellipsePerimeter;html=1;" vertex="1" parent="1">
          <mxGeometry x="297.4499999999998" y="1245.29" width="110" height="44.71" as="geometry" />
        </mxCell>
        <mxCell id="3uP-atdIPFYlUxW9sZs0-47" value="&lt;span style=&quot;font-size: 11px; text-wrap: nowrap; background-color: rgb(255, 255, 255);&quot;&gt;Visualizar Reportes&lt;/span&gt;" style="whiteSpace=wrap;strokeWidth=2;shape=ellipse;perimeter=ellipsePerimeter;html=1;" vertex="1" parent="1">
          <mxGeometry x="640" y="1054" width="130" height="40" as="geometry" />
        </mxCell>
        <mxCell id="3uP-atdIPFYlUxW9sZs0-52" value="&lt;span style=&quot;font-size: 11px; text-wrap: nowrap; background-color: rgb(255, 255, 255);&quot;&gt;Banear cuenta&lt;/span&gt;" style="whiteSpace=wrap;strokeWidth=2;shape=ellipse;perimeter=ellipsePerimeter;html=1;" vertex="1" parent="1">
          <mxGeometry x="640" y="1105" width="130" height="40" as="geometry" />
        </mxCell>
        <mxCell id="3uP-atdIPFYlUxW9sZs0-53" value="&lt;span style=&quot;font-size: 11px; text-wrap: nowrap; background-color: rgb(255, 255, 255);&quot;&gt;Editar permisos&lt;/span&gt;" style="whiteSpace=wrap;strokeWidth=2;shape=ellipse;perimeter=ellipsePerimeter;html=1;" vertex="1" parent="1">
          <mxGeometry x="640" y="1155" width="130" height="40" as="geometry" />
        </mxCell>
        <mxCell id="3uP-atdIPFYlUxW9sZs0-54" value="&lt;span style=&quot;font-size: 11px; text-wrap: nowrap; background-color: rgb(255, 255, 255);&quot;&gt;Ejecutar protocolo&lt;/span&gt;&lt;div&gt;&lt;span style=&quot;font-size: 11px; text-wrap: nowrap; background-color: rgb(255, 255, 255);&quot;&gt;de emergencia&lt;/span&gt;&lt;/div&gt;" style="whiteSpace=wrap;strokeWidth=2;shape=ellipse;perimeter=ellipsePerimeter;html=1;" vertex="1" parent="1">
          <mxGeometry x="640" y="1215" width="130" height="40" as="geometry" />
        </mxCell>
        <mxCell id="3uP-atdIPFYlUxW9sZs0-55" value="" style="curved=1;endArrow=classic;html=1;rounded=0;entryX=0;entryY=0.5;entryDx=0;entryDy=0;exitX=0.5;exitY=1;exitDx=0;exitDy=0;" edge="1" parent="1" source="3uP-atdIPFYlUxW9sZs0-39" target="3uP-atdIPFYlUxW9sZs0-47">
          <mxGeometry width="50" height="50" relative="1" as="geometry">
            <mxPoint x="431.95000000000005" y="1135.29" as="sourcePoint" />
            <mxPoint x="481.95000000000005" y="1085.29" as="targetPoint" />
            <Array as="points">
              <mxPoint x="551.95" y="1125.29" />
            </Array>
          </mxGeometry>
        </mxCell>
        <mxCell id="3uP-atdIPFYlUxW9sZs0-56" value="" style="curved=1;endArrow=classic;html=1;rounded=0;entryX=0;entryY=0.5;entryDx=0;entryDy=0;exitX=0.5;exitY=1;exitDx=0;exitDy=0;" edge="1" parent="1" source="3uP-atdIPFYlUxW9sZs0-39" target="3uP-atdIPFYlUxW9sZs0-52">
          <mxGeometry width="50" height="50" relative="1" as="geometry">
            <mxPoint x="516.95" y="1145.29" as="sourcePoint" />
            <mxPoint x="581.95" y="1192.29" as="targetPoint" />
            <Array as="points">
              <mxPoint x="533.95" y="1182.29" />
            </Array>
          </mxGeometry>
        </mxCell>
        <mxCell id="3uP-atdIPFYlUxW9sZs0-58" value="" style="curved=1;endArrow=classic;html=1;rounded=0;entryX=0;entryY=0.5;entryDx=0;entryDy=0;exitX=0.5;exitY=1;exitDx=0;exitDy=0;" edge="1" parent="1" source="3uP-atdIPFYlUxW9sZs0-39" target="3uP-atdIPFYlUxW9sZs0-53">
          <mxGeometry width="50" height="50" relative="1" as="geometry">
            <mxPoint x="531.95" y="1095.29" as="sourcePoint" />
            <mxPoint x="577.95" y="1235.29" as="targetPoint" />
            <Array as="points">
              <mxPoint x="511.95000000000005" y="1231.29" />
            </Array>
          </mxGeometry>
        </mxCell>
        <mxCell id="3uP-atdIPFYlUxW9sZs0-59" value="" style="curved=1;endArrow=classic;html=1;rounded=0;entryX=0;entryY=0.5;entryDx=0;entryDy=0;exitX=0.5;exitY=1;exitDx=0;exitDy=0;" edge="1" parent="1" source="3uP-atdIPFYlUxW9sZs0-39" target="3uP-atdIPFYlUxW9sZs0-54">
          <mxGeometry width="50" height="50" relative="1" as="geometry">
            <mxPoint x="521.95" y="1105.29" as="sourcePoint" />
            <mxPoint x="578.95" y="1290" as="targetPoint" />
            <Array as="points">
              <mxPoint x="490.95000000000005" y="1285" />
            </Array>
          </mxGeometry>
        </mxCell>
        <mxCell id="3uP-atdIPFYlUxW9sZs0-61" value="" style="endArrow=none;dashed=1;html=1;rounded=0;flowAnimation=1;dashPattern=1 4;strokeWidth=2;strokeColor=#737373;entryX=0.696;entryY=0.029;entryDx=0;entryDy=0;entryPerimeter=0;verticalAlign=middle;exitX=0.17;exitY=0.951;exitDx=0;exitDy=0;exitPerimeter=0;" edge="1" parent="1" source="jzX1-chcsxnyE8P7l5MP-94" target="3uP-atdIPFYlUxW9sZs0-47">
          <mxGeometry width="50" height="50" relative="1" as="geometry">
            <mxPoint x="740" y="1060" as="sourcePoint" />
            <mxPoint x="810" y="1010" as="targetPoint" />
            <Array as="points">
              <mxPoint x="520" y="750" />
              <mxPoint x="520" y="840" />
              <mxPoint x="730" y="1010" />
            </Array>
          </mxGeometry>
        </mxCell>
        <mxCell id="3uP-atdIPFYlUxW9sZs0-62" value="&lt;div style=&quot;font-size: 10px;&quot;&gt;&lt;br&gt;&lt;/div&gt;" style="edgeLabel;html=1;align=center;verticalAlign=middle;resizable=0;points=[];fontSize=10;" connectable="0" vertex="1" parent="3uP-atdIPFYlUxW9sZs0-61">
          <mxGeometry x="0.4516" y="2" relative="1" as="geometry">
            <mxPoint x="43" y="-2" as="offset" />
          </mxGeometry>
        </mxCell>
        <mxCell id="3uP-atdIPFYlUxW9sZs0-63" value="" style="endArrow=none;dashed=1;html=1;rounded=0;flowAnimation=1;dashPattern=1 4;strokeWidth=2;strokeColor=#737373;entryX=0.214;entryY=0.984;entryDx=0;entryDy=0;entryPerimeter=0;exitX=1;exitY=0.5;exitDx=0;exitDy=0;" edge="1" parent="1" source="3uP-atdIPFYlUxW9sZs0-52" target="jzX1-chcsxnyE8P7l5MP-94">
          <mxGeometry width="50" height="50" relative="1" as="geometry">
            <mxPoint x="800" y="1130" as="sourcePoint" />
            <mxPoint x="618.5" y="687.27" as="targetPoint" />
            <Array as="points">
              <mxPoint x="800" y="1110" />
              <mxPoint x="800" y="1060" />
              <mxPoint x="530" y="840" />
              <mxPoint x="530" y="750" />
            </Array>
          </mxGeometry>
        </mxCell>
        <mxCell id="3uP-atdIPFYlUxW9sZs0-64" value="&lt;div style=&quot;font-size: 10px;&quot;&gt;&lt;br&gt;&lt;/div&gt;" style="edgeLabel;html=1;align=center;verticalAlign=middle;resizable=0;points=[];fontSize=10;" connectable="0" vertex="1" parent="3uP-atdIPFYlUxW9sZs0-63">
          <mxGeometry x="0.4516" y="2" relative="1" as="geometry">
            <mxPoint x="43" y="-2" as="offset" />
          </mxGeometry>
        </mxCell>
        <mxCell id="3uP-atdIPFYlUxW9sZs0-65" value="" style="endArrow=none;dashed=1;html=1;rounded=0;flowAnimation=1;dashPattern=1 4;strokeWidth=2;strokeColor=#737373;exitX=1;exitY=0.5;exitDx=0;exitDy=0;entryX=0.291;entryY=0.958;entryDx=0;entryDy=0;entryPerimeter=0;" edge="1" parent="1" source="3uP-atdIPFYlUxW9sZs0-53" target="jzX1-chcsxnyE8P7l5MP-94">
          <mxGeometry width="50" height="50" relative="1" as="geometry">
            <mxPoint x="786.5" y="1126.16" as="sourcePoint" />
            <mxPoint x="620" y="684" as="targetPoint" />
            <Array as="points">
              <mxPoint x="810" y="1150" />
              <mxPoint x="810" y="1060" />
              <mxPoint x="540" y="840" />
              <mxPoint x="540" y="750" />
            </Array>
          </mxGeometry>
        </mxCell>
        <mxCell id="3uP-atdIPFYlUxW9sZs0-66" value="&lt;div style=&quot;font-size: 10px;&quot;&gt;&lt;br&gt;&lt;/div&gt;" style="edgeLabel;html=1;align=center;verticalAlign=middle;resizable=0;points=[];fontSize=10;" connectable="0" vertex="1" parent="3uP-atdIPFYlUxW9sZs0-65">
          <mxGeometry x="0.4516" y="2" relative="1" as="geometry">
            <mxPoint x="43" y="-2" as="offset" />
          </mxGeometry>
        </mxCell>
        <mxCell id="3uP-atdIPFYlUxW9sZs0-67" value="" style="endArrow=none;dashed=1;html=1;rounded=0;flowAnimation=1;dashPattern=1 4;strokeWidth=2;strokeColor=#737373;exitX=1;exitY=0.5;exitDx=0;exitDy=0;" edge="1" parent="1" source="3uP-atdIPFYlUxW9sZs0-54">
          <mxGeometry width="50" height="50" relative="1" as="geometry">
            <mxPoint x="780" y="1173.84" as="sourcePoint" />
            <mxPoint x="640" y="680" as="targetPoint" />
            <Array as="points">
              <mxPoint x="820" y="1200" />
              <mxPoint x="820" y="1058.84" />
              <mxPoint x="550" y="838.84" />
              <mxPoint x="550" y="749" />
            </Array>
          </mxGeometry>
        </mxCell>
        <mxCell id="3uP-atdIPFYlUxW9sZs0-68" value="&lt;div style=&quot;font-size: 10px;&quot;&gt;&lt;br&gt;&lt;/div&gt;" style="edgeLabel;html=1;align=center;verticalAlign=middle;resizable=0;points=[];fontSize=10;" connectable="0" vertex="1" parent="3uP-atdIPFYlUxW9sZs0-67">
          <mxGeometry x="0.4516" y="2" relative="1" as="geometry">
            <mxPoint x="43" y="-2" as="offset" />
          </mxGeometry>
        </mxCell>
        <mxCell id="3uP-atdIPFYlUxW9sZs0-70" value="" style="endArrow=none;dashed=1;html=1;rounded=0;flowAnimation=1;dashPattern=1 4;strokeWidth=2;strokeColor=#737373;entryX=0.145;entryY=1;entryDx=0;entryDy=-4.35;entryPerimeter=0;exitX=0.5;exitY=0;exitDx=0;exitDy=0;" edge="1" parent="1" source="3uP-atdIPFYlUxW9sZs0-30" target="jzX1-chcsxnyE8P7l5MP-94">
          <mxGeometry width="50" height="50" relative="1" as="geometry">
            <mxPoint x="341.95" y="1094" as="sourcePoint" />
            <mxPoint x="181.95" y="655" as="targetPoint" />
            <Array as="points">
              <mxPoint x="359" y="960" />
              <mxPoint x="510" y="840" />
              <mxPoint x="510" y="750" />
            </Array>
          </mxGeometry>
        </mxCell>
        <mxCell id="3uP-atdIPFYlUxW9sZs0-71" value="&lt;div style=&quot;font-size: 10px;&quot;&gt;&lt;br&gt;&lt;/div&gt;" style="edgeLabel;html=1;align=center;verticalAlign=middle;resizable=0;points=[];fontSize=10;" connectable="0" vertex="1" parent="3uP-atdIPFYlUxW9sZs0-70">
          <mxGeometry x="0.4516" y="2" relative="1" as="geometry">
            <mxPoint x="43" y="-2" as="offset" />
          </mxGeometry>
        </mxCell>
        <mxCell id="jzX1-chcsxnyE8P7l5MP-94" value="&lt;p style=&quot;line-height: 150%;&quot;&gt;Base de datos&lt;/p&gt;" style="shape=cylinder3;whiteSpace=wrap;html=1;boundedLbl=1;backgroundOutline=1;size=15;gradientColor=#0084ff;fillColor=default;shadow=1;" vertex="1" parent="1">
          <mxGeometry x="563.78" y="619.27" width="214" height="68" as="geometry" />
        </mxCell>
      </root>
    </mxGraphModel>
  </diagram>
</mxfile>
